<svg id="Layer_1" data-name="Layer 1" xmlns="http://www.w3.org/2000/svg" viewBox="0 0 630 420"><title>how-verify-works-simple</title><path d="M234.64,244.38H147a3.91,3.91,0,0,0-3.88,3.91v59.32h95.44V248.29A3.9,3.9,0,0,0,234.64,244.38Zm-2.09,57.22H149V250.39h83.51Z" fill="#0b0c0c"/><path d="M200.64,311.89H181a2.33,2.33,0,0,1-2.23-2.21H128.16v4.73l14.91,1.21h95.44l14.92-1.21v-4.73H202.87A2.27,2.27,0,0,1,200.64,311.89Z" fill="#0b0c0c"/><rect x="314.75" y="247.39" width="85.44" height="57.08" fill="#005ea5"/><path d="M400.69,305H314.25V246.89h86.44Zm-85.44-1h84.44V247.89H315.25Z" fill="#0a0a0a"/><rect x="481.42" y="247.39" width="85.44" height="57.08" fill="#005ea5"/><path d="M567.36,305H480.92V246.89h86.44Zm-85.44-1h84.44V247.89H481.92Z" fill="#0a0a0a"/><path d="M401.31,244.38H313.63a3.9,3.9,0,0,0-3.88,3.91v59.32h95.44V248.29A3.91,3.91,0,0,0,401.31,244.38Zm-2.09,57.22H315.71V250.39h83.51Z" fill="#0b0c0c"/><path d="M367.31,311.89H347.63a2.33,2.33,0,0,1-2.24-2.21H294.84v4.73l14.91,1.21h95.44l14.91-1.21v-4.73H369.54A2.26,2.26,0,0,1,367.31,311.89Z" fill="#0b0c0c"/><rect x="481.42" y="270.62" width="85.44" height="33.84" fill="#fff"/><path d="M568,244.38H480.3a3.91,3.91,0,0,0-3.88,3.91v59.32h95.44V248.29A3.9,3.9,0,0,0,568,244.38ZM565.9,301.6H482.39V250.39H565.9Z" fill="#0b0c0c"/><path d="M534,311.89H514.3a2.32,2.32,0,0,1-2.23-2.21H461.51v4.73l14.91,1.21h95.44l14.91-1.21v-4.73H536.22A2.27,2.27,0,0,1,534,311.89Z" fill="#0b0c0c"/><path d="M95.74,302.54c-.63-1.19-6.8-11.58-32.3-11.59s-31.68,10.4-32.3,11.59l-.41.79v11.6H96.15v-11.6Z" fill="#0b0c0c"/><path d="M63.44,247.39a18.05,18.05,0,1,0,18,18.05A18.07,18.07,0,0,0,63.44,247.39Z" fill="#0b0c0c"/><polygon points="498.4 255.04 491.93 261.83 489.29 259.07 487.36 261.1 491.93 265.89 500.33 257.07 498.4 255.04" fill="#fff"/><path d="M401.31,101.69H313.63a3.9,3.9,0,0,0-3.88,3.91v59.32h95.44V105.6A3.91,3.91,0,0,0,401.31,101.69Zm-2.09,57.22H315.71V107.7h83.51Z" fill="#0b0c0c"/><path d="M367.31,169.2H347.63a2.33,2.33,0,0,1-2.24-2.21H294.84v4.73l14.91,1.21h95.44l14.91-1.21V167H369.54A2.26,2.26,0,0,1,367.31,169.2Z" fill="#0b0c0c"/><rect x="245.84" y="275.31" width="57.37" height="4" fill="#bfc1c3"/><polygon points="299.14 284.37 297.02 282.25 301.96 277.31 297.02 272.37 299.14 270.25 306.2 277.31 299.14 284.37" fill="#bfc1c3"/><rect x="331.37" y="180.05" width="4" height="58.6" fill="#bfc1c3"/><polygon points="338.31 186.24 333.37 181.31 328.44 186.24 326.31 184.12 333.37 177.06 340.44 184.12 338.31 186.24" fill="#bfc1c3"/><rect x="378.41" y="179.84" width="4" height="58.6" fill="#bfc1c3"/><polygon points="380.41 241.43 373.35 234.37 375.47 232.25 380.41 237.19 385.35 232.25 387.47 234.37 380.41 241.43" fill="#bfc1c3"/><rect x="96.53" y="275.31" width="39.81" height="4" fill="#bfc1c3"/><polygon points="132.26 284.37 130.14 282.25 135.08 277.31 130.14 272.37 132.26 270.25 139.32 277.31 132.26 284.37" fill="#bfc1c3"/><rect x="412.99" y="275.31" width="57.37" height="4" fill="#bfc1c3"/><polygon points="466.28 284.37 464.16 282.25 469.1 277.31 464.16 272.37 466.28 270.25 473.34 277.31 466.28 284.37" fill="#bfc1c3"/><path d="M507.14,265l-2.57-9.1h2.06l1.76,6.84h.06l1.72-6.84h2l-2.57,9.1Z" fill="#fff"/><path d="M513.38,255.9h6.14v1.67h-4.3v1.94h4v1.66h-4v2.17h4.54V265h-6.38Z" fill="#fff"/><path d="M521.21,255.9h3.52a4,4,0,0,1,1.44.24,3.06,3.06,0,0,1,1,.62,2.66,2.66,0,0,1,.63.91,2.63,2.63,0,0,1,.22,1.07,2.76,2.76,0,0,1-.51,1.58,2.59,2.59,0,0,1-1.26.94l2,3.74h-2.12l-1.65-3.27h-1.46V265h-1.84Zm4.93,2.9a1.45,1.45,0,0,0-.1-.51,1.17,1.17,0,0,0-.3-.4,1.4,1.4,0,0,0-.5-.27,2.4,2.4,0,0,0-.69-.09h-1.5v2.56h1.5a2.09,2.09,0,0,0,.69-.1,1.26,1.26,0,0,0,.5-.27,1.21,1.21,0,0,0,.3-.41A1.45,1.45,0,0,0,526.14,258.8Z" fill="#fff"/><path d="M529.57,255.9h1.84V265h-1.84Z" fill="#fff"/><path d="M533.32,255.9h6.13v1.67h-4.29v1.94h4v1.66h-4V265h-1.84Z" fill="#fff"/><path d="M540.79,255.9h1.84V265h-1.84Z" fill="#fff"/><path d="M544.54,255.9h6.13v1.67h-4.29v1.94h4v1.66h-4v2.17h4.54V265h-6.38Z" fill="#fff"/><path d="M560.12,260.45a6.17,6.17,0,0,1-.27,1.87,3.82,3.82,0,0,1-.83,1.43,3.7,3.7,0,0,1-1.37.93,5.42,5.42,0,0,1-1.93.32h-3.35v-9.1h3.35a5.2,5.2,0,0,1,1.93.33,3.68,3.68,0,0,1,1.37.92,4,4,0,0,1,.83,1.44A6.06,6.06,0,0,1,560.12,260.45Zm-1.91-.17a4.09,4.09,0,0,0-.14-1.08,2.42,2.42,0,0,0-.46-.87,2.21,2.21,0,0,0-.81-.58,3.17,3.17,0,0,0-1.22-.21h-1.37v5.83h1.37a3.11,3.11,0,0,0,1.21-.22,2.14,2.14,0,0,0,.82-.58,2.59,2.59,0,0,0,.46-.87,4.2,4.2,0,0,0,.14-1.08Z" fill="#fff"/><path d="M340.9,293.32a17.71,17.71,0,1,0-17.7-17.7,17.71,17.71,0,0,0,17.7,17.7" fill="#0b0b0b"/><path d="M334.13,272.13A1.16,1.16,0,0,0,335,270a1.17,1.17,0,0,0-1.51.64,1.16,1.16,0,0,0,.63,1.51" fill="#fff"/><path d="M331.5,273.67a1.16,1.16,0,1,0-.62-1.51,1.15,1.15,0,0,0,.62,1.51" fill="#fff"/><path d="M330.73,276.59a1.16,1.16,0,1,0-.62-1.51,1.15,1.15,0,0,0,.62,1.51" fill="#fff"/><path d="M337.06,273.05a1.16,1.16,0,1,0-.62-1.5,1.14,1.14,0,0,0,.62,1.5" fill="#fff"/><path d="M347.68,272.13a1.16,1.16,0,0,1-.88-2.15,1.17,1.17,0,0,1,1.51.64,1.16,1.16,0,0,1-.63,1.51" fill="#fff"/><path d="M350.31,273.67a1.16,1.16,0,1,1,.62-1.51,1.15,1.15,0,0,1-.62,1.51" fill="#fff"/><path d="M351.08,276.59a1.16,1.16,0,1,1,.62-1.51,1.15,1.15,0,0,1-.62,1.51" fill="#fff"/><path d="M344.75,273.05a1.16,1.16,0,1,1,.62-1.5,1.14,1.14,0,0,1-.62,1.5" fill="#fff"/><path d="M341.52,270.06h0l1.47.77v-2.16l-1.47.47h0a.93.93,0,0,0-.14-.14h0l.59-1.85h-2.12l.59,1.85h0a.93.93,0,0,0-.14.14h0l-1.46-.47v2.16l1.46-.77h0a1.06,1.06,0,0,0,.15.15l-.84,2.54h0a1.34,1.34,0,0,0-.06.4,1.36,1.36,0,0,0,1.17,1.35h.4a1.36,1.36,0,0,0,1.17-1.35,1.34,1.34,0,0,0-.06-.4h0l-.84-2.54.15-.15" fill="#fff"/><path d="M340.9,282.49a54.75,54.75,0,0,1,7.77.53,14.85,14.85,0,0,1,2.32-5.56l-1.58-.56a2.92,2.92,0,0,1,0,1.69,3.14,3.14,0,0,1-.7-1.43L348,279.7a2.37,2.37,0,0,1,1.24-.54c-.73,1.57-1.64,2-2.23,1.87a1.13,1.13,0,0,1-.94-1.32c.17-.77,1-1,1.33-.08.71-1.44-.49-1.89-1.26-1.46,1.18-1.18,1.32-2.23.36-3.5-1.33,1-1.35,2-.75,3.44-.78-.89-2-.41-1.55,1,.56-.87,1.3-.32,1.19.5s-1,1.3-2.23,1.2c-1.7-.16-1.8-1.32-1.84-2.29.42-.08,1.17.31,1.81,1.2l.23-2.69a2.63,2.63,0,0,1-2,.88,8,8,0,0,1,1.31-1.92h-3.37a8,8,0,0,1,1.31,1.92,2.63,2.63,0,0,1-2-.88l.23,2.69c.64-.89,1.39-1.28,1.81-1.2,0,1-.14,2.13-1.84,2.29-1.18.1-2.13-.48-2.23-1.2s.63-1.37,1.19-.5c.44-1.44-.77-1.92-1.55-1,.6-1.42.58-2.43-.75-3.44-1,1.27-.82,2.32.36,3.5-.77-.43-2,0-1.26,1.46.37-.89,1.16-.69,1.33.08a1.13,1.13,0,0,1-.94,1.32c-.59.1-1.5-.3-2.23-1.87a2.37,2.37,0,0,1,1.24.54l-.77-2.54a3.14,3.14,0,0,1-.7,1.43,2.92,2.92,0,0,1,0-1.69l-1.58.56a14.85,14.85,0,0,1,2.32,5.56,54.6,54.6,0,0,1,7.76-.53" fill="#fff"/><path d="M376.89,257.91a50,50,0,0,0-14.11,1.86v22c0,2.56,2.09,4.93,7,7.93a65.36,65.36,0,0,0,5.95,3.2l1.15.53,1.15-.53a66.87,66.87,0,0,0,5.95-3.2c4.91-3,7-5.37,7-7.93v-22a50,50,0,0,0-14.11-1.86" fill="#0b0b0b"/><polygon points="383.34 267.46 374.25 276.99 370.56 273.11 367.84 275.96 374.25 282.68 386.05 270.31 383.34 267.46" fill="#fff"/><path d="M276.28,67.29a3,3,0,0,0,1.05-.17,2.53,2.53,0,0,0,.89-.54,2.61,2.61,0,0,0,.62-.94,3.46,3.46,0,0,0,.24-1.35V57.13h1.34v7.34a4.25,4.25,0,0,1-.32,1.67,3.64,3.64,0,0,1-.87,1.26,3.85,3.85,0,0,1-1.32.81,4.58,4.58,0,0,1-1.63.28,4.52,4.52,0,0,1-1.62-.28,3.91,3.91,0,0,1-1.31-.81,3.54,3.54,0,0,1-.88-1.26,4.08,4.08,0,0,1-.32-1.67V57.13h1.36v7.16a3.47,3.47,0,0,0,.23,1.35,2.73,2.73,0,0,0,.61.94,2.53,2.53,0,0,0,.89.54A3,3,0,0,0,276.28,67.29Z" fill="#0b0c0c"/><path d="M288.15,66.12a2,2,0,0,1-.25,1,2.3,2.3,0,0,1-.65.74,2.7,2.7,0,0,1-.93.46,3.69,3.69,0,0,1-1.09.16,4.8,4.8,0,0,1-1.68-.3,4.4,4.4,0,0,1-1.43-.86l.72-.93c.12.11.27.22.43.34a3.64,3.64,0,0,0,.55.33,3.23,3.23,0,0,0,.66.25,2.55,2.55,0,0,0,.74.1,2.43,2.43,0,0,0,.61-.08,1.72,1.72,0,0,0,.51-.24,1.18,1.18,0,0,0,.35-.39,1,1,0,0,0,0-1,1,1,0,0,0-.37-.36,2.46,2.46,0,0,0-.54-.26l-.66-.22-.5-.16q-.42-.15-.81-.33a2.46,2.46,0,0,1-.69-.44,1.82,1.82,0,0,1-.48-.62,1.88,1.88,0,0,1-.18-.86,2.14,2.14,0,0,1,.17-.81,2.39,2.39,0,0,1,.53-.72,2.8,2.8,0,0,1,.9-.52,3.88,3.88,0,0,1,1.29-.2,4,4,0,0,1,1.52.28,4.26,4.26,0,0,1,1.19.68l-.69.94a2.75,2.75,0,0,0-.41-.31,2.62,2.62,0,0,0-.5-.26,3.24,3.24,0,0,0-.55-.19,2.78,2.78,0,0,0-.57-.07,2.52,2.52,0,0,0-.73.1,1.54,1.54,0,0,0-.48.25,1.1,1.1,0,0,0-.26.36,1,1,0,0,0-.08.38.85.85,0,0,0,.12.46,1.14,1.14,0,0,0,.31.31,1.76,1.76,0,0,0,.43.23l.52.19.65.22a7.73,7.73,0,0,1,.86.33,3.29,3.29,0,0,1,.69.4,2.23,2.23,0,0,1,.58.69A2,2,0,0,1,288.15,66.12Z" fill="#0b0c0c"/><path d="M291.05,64.75a3.85,3.85,0,0,0,.23,1,2.84,2.84,0,0,0,.51.82,2.33,2.33,0,0,0,.77.54,2.38,2.38,0,0,0,1,.19,2.87,2.87,0,0,0,1.17-.22,4.52,4.52,0,0,0,.92-.56l.67,1a4.65,4.65,0,0,1-1.24.7,4.19,4.19,0,0,1-1.58.28,3.79,3.79,0,0,1-1.57-.31,3.35,3.35,0,0,1-1.2-.86A3.7,3.7,0,0,1,290,66a4.94,4.94,0,0,1-.27-1.66,5.28,5.28,0,0,1,.26-1.68,4.09,4.09,0,0,1,.74-1.31,3.44,3.44,0,0,1,1.14-.86,3.53,3.53,0,0,1,1.48-.31,3.29,3.29,0,0,1,1.42.31,3.22,3.22,0,0,1,1.08.86,4.17,4.17,0,0,1,.68,1.31,5.5,5.5,0,0,1,.24,1.66v.42Zm2.2-3.41a2,2,0,0,0-.89.2,2.12,2.12,0,0,0-.67.52,2.79,2.79,0,0,0-.44.75,3.36,3.36,0,0,0-.18.88h4.23a3.26,3.26,0,0,0-.16-.88,2.46,2.46,0,0,0-.41-.75,2,2,0,0,0-.63-.52A1.81,1.81,0,0,0,293.25,61.34Z" fill="#0b0c0c"/><path d="M302.62,61.52h-.21a3.77,3.77,0,0,0-1,.12,2.07,2.07,0,0,0-.82.42,2.13,2.13,0,0,0-.56.83,3.68,3.68,0,0,0-.21,1.35v4.09h-1.31v-8h1.31v1.26a2,2,0,0,1,.4-.61,2,2,0,0,1,.56-.44,2.84,2.84,0,0,1,.68-.27,3.72,3.72,0,0,1,.74-.08h.38Z" fill="#0b0c0c"/><path d="M308.36,68.33l-2.53-8h1.49l1.91,6.76,1.91-6.76h1.49l-2.53,8Z" fill="#0b0c0c"/><path d="M315,64.75a3.51,3.51,0,0,0,.23,1,2.47,2.47,0,0,0,.51.82,2.33,2.33,0,0,0,.77.54,2.38,2.38,0,0,0,1,.19,2.87,2.87,0,0,0,1.17-.22,4.52,4.52,0,0,0,.92-.56l.67,1a4.81,4.81,0,0,1-1.24.7,4.19,4.19,0,0,1-1.58.28,3.84,3.84,0,0,1-1.58-.31,3.4,3.4,0,0,1-1.19-.86,3.72,3.72,0,0,1-.77-1.31,5.2,5.2,0,0,1-.26-1.66,5.28,5.28,0,0,1,.26-1.68,3.91,3.91,0,0,1,.74-1.31,3.44,3.44,0,0,1,1.14-.86,3.53,3.53,0,0,1,1.48-.31,3.29,3.29,0,0,1,1.42.31,3.22,3.22,0,0,1,1.08.86,4.17,4.17,0,0,1,.68,1.31,5.5,5.5,0,0,1,.24,1.66v.42Zm2.2-3.41a2,2,0,0,0-.89.2,2,2,0,0,0-.67.52,2.55,2.55,0,0,0-.44.75,2.71,2.71,0,0,0-.18.88h4.23a3.69,3.69,0,0,0-.16-.88,2.46,2.46,0,0,0-.41-.75,2.09,2.09,0,0,0-.63-.52A1.81,1.81,0,0,0,317.15,61.34Z" fill="#0b0c0c"/><path d="M326.52,61.52h-.21a3.85,3.85,0,0,0-1,.12,2.09,2.09,0,0,0-.81.42,2.13,2.13,0,0,0-.56.83,3.68,3.68,0,0,0-.21,1.35v4.09h-1.31v-8h1.31v1.26a2,2,0,0,1,.4-.61,2,2,0,0,1,.56-.44,2.68,2.68,0,0,1,.68-.27,3.65,3.65,0,0,1,.74-.08h.38Z" fill="#0b0c0c"/><path d="M327.82,58a.84.84,0,0,1,.07-.35,1.15,1.15,0,0,1,.2-.29,1,1,0,0,1,.29-.2.94.94,0,0,1,.71,0,1,1,0,0,1,.28.2,1.15,1.15,0,0,1,.2.29.84.84,0,0,1,.07.35.86.86,0,0,1-.07.36,1,1,0,0,1-.2.29.92.92,0,0,1-.28.19.86.86,0,0,1-.36.08.85.85,0,0,1-.35-.08,1,1,0,0,1-.29-.19,1,1,0,0,1-.2-.29A.86.86,0,0,1,327.82,58Zm1.56,10.29h-1.32v-8h1.32Z" fill="#0b0c0c"/><path d="M333.64,60.35h1.59v1.16h-1.59v6.82h-1.31V61.51H331V60.35h1.33V58.86a2.08,2.08,0,0,1,.16-.87,1.47,1.47,0,0,1,.46-.58,1.76,1.76,0,0,1,.69-.32,3.54,3.54,0,0,1,.88-.1,6.14,6.14,0,0,1,.81,0l.47.07-.1,1.12-.27,0-.31,0-.31,0h-.24a1,1,0,0,0-.46.09.7.7,0,0,0-.29.21.8.8,0,0,0-.14.31,1.34,1.34,0,0,0,0,.35Z" fill="#0b0c0c"/><path d="M336.63,58a.85.85,0,0,1,.08-.35,1.12,1.12,0,0,1,.19-.29,1,1,0,0,1,.29-.2.94.94,0,0,1,.71,0,1,1,0,0,1,.28.2,1.15,1.15,0,0,1,.2.29.84.84,0,0,1,.07.35.86.86,0,0,1-.07.36,1,1,0,0,1-.2.29.92.92,0,0,1-.28.19.85.85,0,0,1-.35.08.86.86,0,0,1-.36-.08.85.85,0,0,1-.48-.48A.86.86,0,0,1,336.63,58Zm1.56,10.29h-1.31v-8h1.31Z" fill="#0b0c0c"/><path d="M341.48,64.75a3.5,3.5,0,0,0,.22,1,2.84,2.84,0,0,0,.51.82,2.44,2.44,0,0,0,.77.54,2.38,2.38,0,0,0,1,.19,2.87,2.87,0,0,0,1.17-.22,4.52,4.52,0,0,0,.92-.56l.68,1a4.88,4.88,0,0,1-1.25.7,4.19,4.19,0,0,1-1.58.28,3.79,3.79,0,0,1-1.57-.31,3.35,3.35,0,0,1-1.2-.86,3.7,3.7,0,0,1-.76-1.31,4.94,4.94,0,0,1-.27-1.66,5.28,5.28,0,0,1,.26-1.68,4.09,4.09,0,0,1,.74-1.31,3.44,3.44,0,0,1,1.14-.86,3.56,3.56,0,0,1,1.48-.31,3.29,3.29,0,0,1,1.42.31,3.22,3.22,0,0,1,1.08.86,4,4,0,0,1,.68,1.31,5.5,5.5,0,0,1,.24,1.66v.42Zm2.19-3.41a2,2,0,0,0-.89.2,2.12,2.12,0,0,0-.67.52,2.53,2.53,0,0,0-.43.75,3,3,0,0,0-.19.88h4.23a3.26,3.26,0,0,0-.16-.88,2.26,2.26,0,0,0-.41-.75,1.87,1.87,0,0,0-.63-.52A1.81,1.81,0,0,0,343.67,61.34Z" fill="#0b0c0c"/><path d="M354.31,66.12a2.09,2.09,0,0,1-.24,1,2.46,2.46,0,0,1-.66.74,2.7,2.7,0,0,1-.93.46,3.58,3.58,0,0,1-1.08.16,4.81,4.81,0,0,1-1.69-.3,4.62,4.62,0,0,1-1.43-.86l.72-.93c.12.11.27.22.43.34a4.21,4.21,0,0,0,.55.33,3.74,3.74,0,0,0,.66.25,2.59,2.59,0,0,0,.74.1,2.51,2.51,0,0,0,.62-.08,2,2,0,0,0,.51-.24,1.44,1.44,0,0,0,.35-.39,1,1,0,0,0,.12-.5.93.93,0,0,0-.13-.52,1.06,1.06,0,0,0-.37-.36,2.55,2.55,0,0,0-.55-.26l-.66-.22-.5-.16q-.42-.15-.81-.33a2.46,2.46,0,0,1-.69-.44,2,2,0,0,1-.48-.62,2,2,0,0,1-.17-.86,2,2,0,0,1,.17-.81,2.1,2.1,0,0,1,.53-.72,2.6,2.6,0,0,1,.9-.52,3.8,3.8,0,0,1,1.29-.2,4,4,0,0,1,1.52.28,4.2,4.2,0,0,1,1.18.68l-.69.94a2.64,2.64,0,0,0-.4-.31,3.4,3.4,0,0,0-.5-.26,3.69,3.69,0,0,0-.56-.19,2.78,2.78,0,0,0-.57-.07,2.45,2.45,0,0,0-.72.1,1.54,1.54,0,0,0-.48.25A1,1,0,0,0,350,62a.87.87,0,0,0-.08.38.85.85,0,0,0,.11.46,1.14,1.14,0,0,0,.31.31,1.83,1.83,0,0,0,.44.23l.51.19.66.22a7.73,7.73,0,0,1,.86.33,3,3,0,0,1,.68.4,2.26,2.26,0,0,1,.59.69A2.07,2.07,0,0,1,354.31,66.12Z" fill="#0b0c0c"/><path d="M359.29,58a.84.84,0,0,1,.07-.35,1.15,1.15,0,0,1,.2-.29,1,1,0,0,1,.29-.2,1,1,0,0,1,.35-.07,1,1,0,0,1,.35.07,1,1,0,0,1,.29.2,1.15,1.15,0,0,1,.2.29.94.94,0,0,1,0,.71,1,1,0,0,1-.2.29,1,1,0,0,1-.29.19.78.78,0,0,1-.35.08.85.85,0,0,1-.35-.08,1,1,0,0,1-.29-.19,1,1,0,0,1-.2-.29A.86.86,0,0,1,359.29,58Zm1.55,10.29h-1.31v-8h1.31Z" fill="#0b0c0c"/><path d="M368.5,67.42a2.34,2.34,0,0,1-1,.78,3.18,3.18,0,0,1-1.38.29,3,3,0,0,1-1.39-.31,3,3,0,0,1-1.07-.86A3.9,3.9,0,0,1,363,66a5.46,5.46,0,0,1-.24-1.66,5.57,5.57,0,0,1,.24-1.67,4,4,0,0,1,.69-1.32,3.2,3.2,0,0,1,1.07-.86,3.35,3.35,0,0,1,2.77,0,2.42,2.42,0,0,1,1,.78V57.13h1.31v11.2H368.5Zm-4.37-3a4.23,4.23,0,0,0,.15,1.16,2.92,2.92,0,0,0,.44.94,2.11,2.11,0,0,0,.71.62,2.06,2.06,0,0,0,1,.23,2.17,2.17,0,0,0,.91-.18,1.75,1.75,0,0,0,.66-.5,2,2,0,0,0,.4-.73,3.12,3.12,0,0,0,.14-.93v-1.3a3,3,0,0,0-.14-.92A2,2,0,0,0,368,62a1.73,1.73,0,0,0-.66-.49,2.17,2.17,0,0,0-.91-.18,2.05,2.05,0,0,0-1,.22,2.11,2.11,0,0,0-.71.62,3,3,0,0,0-.44.94,4.34,4.34,0,0,0-.15,1.16Z" fill="#0b0c0c"/><path d="M373.11,64.75a3.22,3.22,0,0,0,.23,1,2.47,2.47,0,0,0,.51.82,2.29,2.29,0,0,0,.76.54,2.41,2.41,0,0,0,1,.19,2.81,2.81,0,0,0,1.17-.22,4.34,4.34,0,0,0,.93-.56l.67,1a4.88,4.88,0,0,1-1.25.7,4.19,4.19,0,0,1-1.58.28,3.79,3.79,0,0,1-1.57-.31,3.35,3.35,0,0,1-1.2-.86A3.86,3.86,0,0,1,372,66a4.94,4.94,0,0,1-.27-1.66,5,5,0,0,1,.27-1.68,4.07,4.07,0,0,1,.73-1.31,3.38,3.38,0,0,1,1.15-.86,3.52,3.52,0,0,1,1.47-.31,3.25,3.25,0,0,1,1.42.31,3.12,3.12,0,0,1,1.08.86,4,4,0,0,1,.69,1.31,5.84,5.84,0,0,1,.23,1.66v.42Zm2.19-3.41a2,2,0,0,0-1.55.72,2.55,2.55,0,0,0-.44.75,3,3,0,0,0-.19.88h4.23a2.91,2.91,0,0,0-.16-.88,2.44,2.44,0,0,0-.4-.75,2,2,0,0,0-.64-.52A1.81,1.81,0,0,0,375.3,61.34Z" fill="#0b0c0c"/><path d="M380.6,60.35h1.31v.91a2.4,2.4,0,0,1,1-.81,3.36,3.36,0,0,1,1.33-.26,3,3,0,0,1,1.16.22,2.38,2.38,0,0,1,.84.6,2.46,2.46,0,0,1,.5.86,3,3,0,0,1,.17,1v5.42h-1.31v-5a2.67,2.67,0,0,0-.13-.9,1.59,1.59,0,0,0-.35-.6,1.38,1.38,0,0,0-.52-.34,2,2,0,0,0-.65-.1,2.1,2.1,0,0,0-.74.13,2,2,0,0,0-.65.42,2,2,0,0,0-.48.68,2.45,2.45,0,0,0-.18,1v4.73H380.6Z" fill="#0b0c0c"/><path d="M391.32,66.35a2.34,2.34,0,0,0,0,.38.66.66,0,0,0,.13.31.66.66,0,0,0,.31.21,1.6,1.6,0,0,0,.55.08h.23l.27,0,.27,0,.23,0,.14,1.15-.47.06-.46,0-.5,0a3.2,3.2,0,0,1-.85-.1,1.71,1.71,0,0,1-.65-.31,1.44,1.44,0,0,1-.4-.58,2.22,2.22,0,0,1-.14-.86V61.51H388.5V60.35H390V57.74l1.31-.46v3.07h2.22v1.16h-2.22Z" fill="#0b0c0c"/><path d="M394.92,58a.85.85,0,0,1,.08-.35.91.91,0,0,1,.19-.29,1,1,0,0,1,.29-.2.94.94,0,0,1,.71,0,1,1,0,0,1,.28.2,1.15,1.15,0,0,1,.2.29.84.84,0,0,1,.07.35.86.86,0,0,1-.07.36,1,1,0,0,1-.2.29.92.92,0,0,1-.28.19.85.85,0,0,1-.35.08.86.86,0,0,1-.36-.08,1,1,0,0,1-.29-.19.81.81,0,0,1-.19-.29A.86.86,0,0,1,394.92,58Zm1.56,10.29h-1.32v-8h1.32Z" fill="#0b0c0c"/><path d="M400.94,66.35c0,.13,0,.26,0,.38a.68.68,0,0,0,.14.31.66.66,0,0,0,.31.21,1.6,1.6,0,0,0,.55.08h.22l.27,0,.28,0,.22,0,.14,1.15-.47.06-.45,0-.5,0a3.15,3.15,0,0,1-.85-.1,1.64,1.64,0,0,1-.65-.31,1.34,1.34,0,0,1-.4-.58,2.21,2.21,0,0,1-.15-.86V61.51h-1.5V60.35h1.5V57.74l1.32-.46v3.07h2.22v1.16h-2.22Z" fill="#0b0c0c"/><path d="M403.9,60.35h1.48l2,6.59,1.88-6.59h1.47l-2.91,9.19a2.22,2.22,0,0,1-.34.69,2,2,0,0,1-.49.43,1.81,1.81,0,0,1-.59.22,3.88,3.88,0,0,1-.7.06l-.68,0-.74-.1.2-1.15.33.06.34,0h.38a.91.91,0,0,0,1-.8l.08-.36Z" fill="#0b0c0c"/><path d="M421.67,66.78l1.45-6.43h1.39l-2,8h-1.67l-1.62-6.39-1.65,6.39H416l-1.94-8h1.42l1.39,6.43,1.68-6.43H420Z" fill="#0b0c0c"/><path d="M426,58a.85.85,0,0,1,.08-.35.91.91,0,0,1,.19-.29,1,1,0,0,1,.29-.2.94.94,0,0,1,.71,0,1,1,0,0,1,.28.2,1.15,1.15,0,0,1,.2.29.84.84,0,0,1,.07.35.86.86,0,0,1-.07.36,1,1,0,0,1-.2.29.92.92,0,0,1-.28.19.85.85,0,0,1-.35.08.86.86,0,0,1-.36-.08,1,1,0,0,1-.29-.19.81.81,0,0,1-.19-.29A.86.86,0,0,1,426,58Zm1.56,10.29H426.2v-8h1.32Z" fill="#0b0c0c"/><path d="M432,66.35c0,.13,0,.26,0,.38a.68.68,0,0,0,.14.31.66.66,0,0,0,.31.21,1.6,1.6,0,0,0,.55.08h.22l.27,0,.28,0,.22,0,.14,1.15-.47.06-.45,0-.5,0a3.15,3.15,0,0,1-.85-.1,1.64,1.64,0,0,1-.65-.31,1.45,1.45,0,0,1-.41-.58,2.42,2.42,0,0,1-.14-.86V61.51h-1.5V60.35h1.5V57.74l1.32-.46v3.07h2.22v1.16H432Z" fill="#0b0c0c"/><path d="M435.82,57.13h1.31v4.13a2.4,2.4,0,0,1,1-.81,3.36,3.36,0,0,1,1.33-.26,3,3,0,0,1,1.16.22A2.41,2.41,0,0,1,442,61.87a3.29,3.29,0,0,1,.17,1v5.42h-1.31v-5a2.67,2.67,0,0,0-.13-.9,1.59,1.59,0,0,0-.35-.6,1.42,1.42,0,0,0-.53-.34,1.91,1.91,0,0,0-.64-.1,2.1,2.1,0,0,0-.74.13,1.91,1.91,0,0,0-.66.42,2.11,2.11,0,0,0-.47.68,2.45,2.45,0,0,0-.18,1v4.73h-1.31Z" fill="#0b0c0c"/><path d="M295.24,87.54a2.8,2.8,0,0,1-.95.68,3.36,3.36,0,0,1-1.4.27,3.52,3.52,0,0,1-1.1-.17,2.58,2.58,0,0,1-.88-.48,2.2,2.2,0,0,1-.59-.76,2.29,2.29,0,0,1-.21-1,2.35,2.35,0,0,1,.15-.86,2.18,2.18,0,0,1,.43-.68,2.31,2.31,0,0,1,.67-.47,2.94,2.94,0,0,1,.87-.25l2.82-.38v-.51a1.72,1.72,0,0,0-.14-.76,1.25,1.25,0,0,0-.37-.49,1.49,1.49,0,0,0-.57-.26,3.06,3.06,0,0,0-.7-.08,3.94,3.94,0,0,0-1.25.19,5.62,5.62,0,0,0-1,.44l-.49-1a5.41,5.41,0,0,1,1.44-.57,7,7,0,0,1,1.49-.17,3.26,3.26,0,0,1,2.21.66,2.44,2.44,0,0,1,.75,1.93v3.68a1.38,1.38,0,0,0,.15.67,1.05,1.05,0,0,0,.5.42l-.74.94a1.45,1.45,0,0,1-.64-.33,1.25,1.25,0,0,1-.38-.58Zm-2.33-2.76a3.33,3.33,0,0,0-.6.13,1.8,1.8,0,0,0-.46.23,1.07,1.07,0,0,0-.4.87,1.39,1.39,0,0,0,.14.63,1.23,1.23,0,0,0,.36.46,1.53,1.53,0,0,0,.52.28,1.89,1.89,0,0,0,.63.1,2.46,2.46,0,0,0,.72-.1,2.26,2.26,0,0,0,.63-.29,1.65,1.65,0,0,0,.44-.47,1.17,1.17,0,0,0,.16-.62V84.46Z" fill="#0b0c0c"/><path d="M302.83,84.38a4.24,4.24,0,0,0,.15,1.14,3,3,0,0,0,.43.94,2.24,2.24,0,0,0,.73.64,2,2,0,0,0,1,.24,2.05,2.05,0,0,0,1.26-.39,2,2,0,0,0,.45-.43,2.63,2.63,0,0,0,.35-.52l1.09.62a3,3,0,0,1-.51.77,3.44,3.44,0,0,1-.73.59,3.62,3.62,0,0,1-1.91.51,3.55,3.55,0,0,1-1.51-.31,3.38,3.38,0,0,1-1.16-.86,4,4,0,0,1-.75-1.31,5.16,5.16,0,0,1-.26-1.66,5.28,5.28,0,0,1,.26-1.68,4.11,4.11,0,0,1,.75-1.31,3.51,3.51,0,0,1,1.16-.86,3.7,3.7,0,0,1,1.51-.31,3.75,3.75,0,0,1,1,.14,3.34,3.34,0,0,1,.89.37,3.44,3.44,0,0,1,.73.59,3,3,0,0,1,.51.77l-1.09.63a2.7,2.7,0,0,0-.35-.53,2,2,0,0,0-.45-.43,2.24,2.24,0,0,0-1.26-.39,2,2,0,0,0-1,.24,2.24,2.24,0,0,0-.73.64,3,3,0,0,0-.43.94,4.24,4.24,0,0,0-.15,1.14Z" fill="#0b0c0c"/><path d="M311,84.75a3.5,3.5,0,0,0,.22,1,2.84,2.84,0,0,0,.51.82,2.33,2.33,0,0,0,.77.54,2.38,2.38,0,0,0,1,.19,2.87,2.87,0,0,0,1.17-.22,4.52,4.52,0,0,0,.92-.56l.68,1a4.88,4.88,0,0,1-1.25.7,4.19,4.19,0,0,1-1.58.28,3.79,3.79,0,0,1-1.57-.31,3.35,3.35,0,0,1-1.2-.86,3.7,3.7,0,0,1-.76-1.31,4.94,4.94,0,0,1-.27-1.66,5.28,5.28,0,0,1,.26-1.68,4.09,4.09,0,0,1,.74-1.31,3.44,3.44,0,0,1,1.14-.86,3.56,3.56,0,0,1,1.48-.31,3.29,3.29,0,0,1,1.42.31,3.22,3.22,0,0,1,1.08.86,4.17,4.17,0,0,1,.68,1.31,5.5,5.5,0,0,1,.24,1.66v.42Zm2.19-3.41a2,2,0,0,0-.89.2,2.12,2.12,0,0,0-.67.52,2.79,2.79,0,0,0-.44.75,3.36,3.36,0,0,0-.18.88h4.23a3.26,3.26,0,0,0-.16-.88,2.46,2.46,0,0,0-.41-.75,1.87,1.87,0,0,0-.63-.52A1.81,1.81,0,0,0,313.14,81.34Z" fill="#0b0c0c"/><path d="M322.52,81.52h-.22a3.77,3.77,0,0,0-1,.12,2.07,2.07,0,0,0-.82.42,2.13,2.13,0,0,0-.56.83,3.68,3.68,0,0,0-.21,1.35v4.09h-1.31v-8h1.31v1.26a2,2,0,0,1,.4-.61,2,2,0,0,1,.56-.44,2.84,2.84,0,0,1,.68-.27,3.72,3.72,0,0,1,.74-.08h.39Z" fill="#0b0c0c"/><path d="M326.12,86.35c0,.13,0,.26,0,.38a.68.68,0,0,0,.14.31.66.66,0,0,0,.31.21,1.6,1.6,0,0,0,.55.08h.22l.27,0,.28,0,.22,0,.14,1.15-.47.06-.45,0-.5,0a3.15,3.15,0,0,1-.85-.1,1.64,1.64,0,0,1-.65-.31,1.34,1.34,0,0,1-.4-.58,2.21,2.21,0,0,1-.15-.86V81.51h-1.5V80.35h1.5V77.74l1.32-.46v3.07h2.22v1.16h-2.22Z" fill="#0b0c0c"/><path d="M329.72,78a.84.84,0,0,1,.07-.35,1.15,1.15,0,0,1,.2-.29,1,1,0,0,1,.29-.2,1,1,0,0,1,.35-.07,1,1,0,0,1,.35.07,1,1,0,0,1,.29.2.91.91,0,0,1,.19.29.85.85,0,0,1,.08.35.86.86,0,0,1-.08.36.81.81,0,0,1-.19.29,1,1,0,0,1-.29.19.78.78,0,0,1-.35.08.85.85,0,0,1-.35-.08,1,1,0,0,1-.29-.19,1,1,0,0,1-.2-.29A.86.86,0,0,1,329.72,78Zm1.55,10.29H330v-8h1.31Z" fill="#0b0c0c"/><path d="M335.54,80.35h1.58v1.16h-1.58v6.82h-1.31V81.51H332.9V80.35h1.33V78.86a2.08,2.08,0,0,1,.16-.87,1.47,1.47,0,0,1,.46-.58,1.69,1.69,0,0,1,.69-.32,3.49,3.49,0,0,1,.88-.1,6.24,6.24,0,0,1,.81,0l.47.07-.1,1.12-.27,0-.31,0-.31,0h-.24a1,1,0,0,0-.46.09.7.7,0,0,0-.29.21.68.68,0,0,0-.14.31,1.34,1.34,0,0,0,0,.35Z" fill="#0b0c0c"/><path d="M338.53,78a.85.85,0,0,1,.08-.35.91.91,0,0,1,.19-.29,1,1,0,0,1,.29-.2.94.94,0,0,1,.71,0,1,1,0,0,1,.28.2,1.15,1.15,0,0,1,.2.29.84.84,0,0,1,.07.35.86.86,0,0,1-.07.36,1,1,0,0,1-.2.29.92.92,0,0,1-.28.19.85.85,0,0,1-.35.08.86.86,0,0,1-.36-.08,1,1,0,0,1-.29-.19.81.81,0,0,1-.19-.29A.86.86,0,0,1,338.53,78Zm1.56,10.29h-1.32v-8h1.32Z" fill="#0b0c0c"/><path d="M343.38,84.75a3.5,3.5,0,0,0,.22,1,2.84,2.84,0,0,0,.51.82,2.33,2.33,0,0,0,.77.54,2.38,2.38,0,0,0,1,.19,2.87,2.87,0,0,0,1.17-.22,4.52,4.52,0,0,0,.92-.56l.67,1a4.65,4.65,0,0,1-1.24.7,4.19,4.19,0,0,1-1.58.28,3.79,3.79,0,0,1-1.57-.31,3.35,3.35,0,0,1-1.2-.86,3.7,3.7,0,0,1-.76-1.31,4.94,4.94,0,0,1-.27-1.66,5.28,5.28,0,0,1,.26-1.68,4.09,4.09,0,0,1,.74-1.31,3.44,3.44,0,0,1,1.14-.86,3.56,3.56,0,0,1,1.48-.31,3.29,3.29,0,0,1,1.42.31,3.22,3.22,0,0,1,1.08.86,4.17,4.17,0,0,1,.68,1.31,5.5,5.5,0,0,1,.24,1.66v.42Zm2.19-3.41a2,2,0,0,0-.89.2,2.12,2.12,0,0,0-.67.52,2.79,2.79,0,0,0-.44.75,3.36,3.36,0,0,0-.18.88h4.23a3.26,3.26,0,0,0-.16-.88,2.46,2.46,0,0,0-.41-.75,1.87,1.87,0,0,0-.63-.52A1.81,1.81,0,0,0,345.57,81.34Z" fill="#0b0c0c"/><path d="M356.12,87.42a2.37,2.37,0,0,1-.95.78,3.25,3.25,0,0,1-1.38.29,3.08,3.08,0,0,1-2.47-1.17,3.71,3.71,0,0,1-.68-1.31,5.46,5.46,0,0,1-.24-1.66,5.57,5.57,0,0,1,.24-1.67,3.76,3.76,0,0,1,.68-1.32,3.31,3.31,0,0,1,1.07-.86,3.2,3.2,0,0,1,1.4-.31,3.25,3.25,0,0,1,1.38.29,2.45,2.45,0,0,1,.95.78V77.13h1.32v11.2h-1.32Zm-4.36-3a4.23,4.23,0,0,0,.15,1.16,2.71,2.71,0,0,0,.43.94,2.21,2.21,0,0,0,.71.62,2.08,2.08,0,0,0,1,.23,2.19,2.19,0,0,0,.92-.18,1.93,1.93,0,0,0,.66-.5,2,2,0,0,0,.4-.73,3.12,3.12,0,0,0,.13-.93v-1.3a3,3,0,0,0-.13-.92,2,2,0,0,0-.4-.74,1.9,1.9,0,0,0-.66-.49,2.19,2.19,0,0,0-.92-.18,2.08,2.08,0,0,0-1,.22,2.21,2.21,0,0,0-.71.62,2.8,2.8,0,0,0-.43.94,4.34,4.34,0,0,0-.15,1.16Z" fill="#0b0c0c"/><path d="M363.92,84.38a4.24,4.24,0,0,0,.15,1.14,2.81,2.81,0,0,0,.44.94,2.11,2.11,0,0,0,.72.64,2.07,2.07,0,0,0,1,.24A2.05,2.05,0,0,0,367.5,87a2.33,2.33,0,0,0,.46-.43,2.59,2.59,0,0,0,.34-.52l1.1.62a3.36,3.36,0,0,1-.52.77,3.15,3.15,0,0,1-.72.59,3.62,3.62,0,0,1-1.92.51,3.5,3.5,0,0,1-1.5-.31,3.29,3.29,0,0,1-1.16-.86,3.68,3.68,0,0,1-.75-1.31,4.9,4.9,0,0,1-.27-1.66,5,5,0,0,1,.27-1.68,3.77,3.77,0,0,1,.75-1.31,3.41,3.41,0,0,1,1.16-.86,3.66,3.66,0,0,1,1.5-.31,3.88,3.88,0,0,1,1,.14,3.49,3.49,0,0,1,.89.37,3.15,3.15,0,0,1,.72.59,3.36,3.36,0,0,1,.52.77l-1.1.63a2.66,2.66,0,0,0-.34-.53,2.33,2.33,0,0,0-.46-.43,2.24,2.24,0,0,0-1.26-.39,2.07,2.07,0,0,0-1,.24,2.11,2.11,0,0,0-.72.64,2.81,2.81,0,0,0-.44.94,4.24,4.24,0,0,0-.15,1.14Z" fill="#0b0c0c"/><path d="M374.34,80.19a3.67,3.67,0,0,1,1.51.31,3.41,3.41,0,0,1,1.16.86,4.11,4.11,0,0,1,.75,1.31,5.28,5.28,0,0,1,.26,1.68,5.2,5.2,0,0,1-.26,1.66,4,4,0,0,1-.75,1.31,3.29,3.29,0,0,1-1.16.86,3.81,3.81,0,0,1-3,0,3.29,3.29,0,0,1-1.16-.86,4,4,0,0,1-.75-1.31,4.94,4.94,0,0,1-.27-1.66,5,5,0,0,1,.27-1.68,4.11,4.11,0,0,1,.75-1.31,3.41,3.41,0,0,1,1.16-.86A3.66,3.66,0,0,1,374.34,80.19Zm0,7.15a2.07,2.07,0,0,0,1-.24,2.11,2.11,0,0,0,.72-.64,2.92,2.92,0,0,0,.45-.94,4.58,4.58,0,0,0,.14-1.12v-.1a4.68,4.68,0,0,0-.14-1.14,2.83,2.83,0,0,0-.45-.94,2.11,2.11,0,0,0-.72-.64,2.07,2.07,0,0,0-1-.24,2,2,0,0,0-1,.24,2.24,2.24,0,0,0-.73.64,3,3,0,0,0-.44.94A4.24,4.24,0,0,0,372,84.3v.1a4.15,4.15,0,0,0,.15,1.12,3.13,3.13,0,0,0,.44.94,2.24,2.24,0,0,0,.73.64A2,2,0,0,0,374.34,87.34Z" fill="#0b0c0c"/><path d="M385.93,88.33h-1.31v-5a3,3,0,0,0-.13-.9,1.62,1.62,0,0,0-.35-.59,1.29,1.29,0,0,0-.5-.33,1.87,1.87,0,0,0-.62-.1,1.64,1.64,0,0,0-.65.13,1.45,1.45,0,0,0-.56.4,1.93,1.93,0,0,0-.4.69,3,3,0,0,0-.15,1v4.72H380v-8h1.31v.91a2.43,2.43,0,0,1,.92-.81,2.68,2.68,0,0,1,1.17-.26,2.52,2.52,0,0,1,.58.08,2.38,2.38,0,0,1,.61.23,2.18,2.18,0,0,1,.56.41,2,2,0,0,1,.41.61,2.61,2.61,0,0,1,1.1-1,3,3,0,0,1,.66-.23,3.92,3.92,0,0,1,.68-.07,2.9,2.9,0,0,1,1.14.22,2.46,2.46,0,0,1,1.37,1.44,3.1,3.1,0,0,1,.17,1v5.47h-1.31v-5a2.67,2.67,0,0,0-.13-.9,1.64,1.64,0,0,0-.36-.59,1.39,1.39,0,0,0-.53-.33,1.77,1.77,0,0,0-.61-.1,1.64,1.64,0,0,0-.65.13,1.45,1.45,0,0,0-.56.4,2.09,2.09,0,0,0-.4.69,3,3,0,0,0-.15,1Z" fill="#0b0c0c"/><path d="M394.28,80.35v.91a2.53,2.53,0,0,1,1-.78,3.39,3.39,0,0,1,2.79,0,3.42,3.42,0,0,1,1.07.86,4.12,4.12,0,0,1,.68,1.32,5.57,5.57,0,0,1,.24,1.67,5.46,5.46,0,0,1-.24,1.66,4.07,4.07,0,0,1-.68,1.31,3.16,3.16,0,0,1-1.07.86,3.09,3.09,0,0,1-1.4.31,3.23,3.23,0,0,1-1.39-.29,2.44,2.44,0,0,1-1-.78v3.34H393V80.35Zm4.37,4a4.34,4.34,0,0,0-.15-1.16,3,3,0,0,0-.44-.94,2.11,2.11,0,0,0-.71-.62,2.07,2.07,0,0,0-1-.22,2.19,2.19,0,0,0-.92.18,1.73,1.73,0,0,0-.66.49,2.21,2.21,0,0,0-.41.74,3,3,0,0,0-.13.92V85a3.12,3.12,0,0,0,.13.93,2.16,2.16,0,0,0,.41.73,1.75,1.75,0,0,0,.66.5,2.19,2.19,0,0,0,.92.18,2.07,2.07,0,0,0,1-.23,2.11,2.11,0,0,0,.71-.62,2.92,2.92,0,0,0,.44-.94,4.23,4.23,0,0,0,.15-1.16Z" fill="#0b0c0c"/><path d="M406.48,87.54a2.85,2.85,0,0,1-.94.68,3.41,3.41,0,0,1-1.41.27,3.57,3.57,0,0,1-1.1-.17,2.58,2.58,0,0,1-.88-.48,2.2,2.2,0,0,1-.59-.76,2.29,2.29,0,0,1-.21-1,2.35,2.35,0,0,1,.15-.86,2.38,2.38,0,0,1,.43-.68,2.31,2.31,0,0,1,.67-.47,2.92,2.92,0,0,1,.88-.25l2.82-.38v-.51a1.88,1.88,0,0,0-.14-.76,1.27,1.27,0,0,0-.38-.49,1.49,1.49,0,0,0-.57-.26,3,3,0,0,0-.69-.08,4,4,0,0,0-1.26.19,5.62,5.62,0,0,0-1.05.44l-.49-1a5.54,5.54,0,0,1,1.44-.57,7,7,0,0,1,1.49-.17,3.26,3.26,0,0,1,2.21.66,2.44,2.44,0,0,1,.75,1.93v3.68a1.28,1.28,0,0,0,.16.67,1,1,0,0,0,.5.42l-.75.94a1.45,1.45,0,0,1-.64-.33,1.25,1.25,0,0,1-.38-.58Zm-2.33-2.76a3.33,3.33,0,0,0-.6.13,1.8,1.8,0,0,0-.46.23,1,1,0,0,0-.39.87,1.39,1.39,0,0,0,.13.63,1.47,1.47,0,0,0,.36.46,1.53,1.53,0,0,0,.52.28,1.93,1.93,0,0,0,.63.1,2.46,2.46,0,0,0,.72-.1,2.14,2.14,0,0,0,.63-.29,1.52,1.52,0,0,0,.44-.47,1.18,1.18,0,0,0,.17-.62V84.46Z" fill="#0b0c0c"/><path d="M410,80.35h1.31v.91a2.46,2.46,0,0,1,1-.81,3.36,3.36,0,0,1,1.33-.26,3,3,0,0,1,1.16.22,2.38,2.38,0,0,1,.84.6,2.46,2.46,0,0,1,.5.86,3,3,0,0,1,.17,1v5.42H415v-5a2.67,2.67,0,0,0-.13-.9,1.47,1.47,0,0,0-.35-.6,1.38,1.38,0,0,0-.52-.34,2,2,0,0,0-.65-.1,2.14,2.14,0,0,0-.74.13,2,2,0,0,0-.65.42,2,2,0,0,0-.48.68,2.45,2.45,0,0,0-.18,1v4.73H410Z" fill="#0b0c0c"/><path d="M417.7,80.35h1.49l2,6.59L423,80.35h1.47l-2.91,9.19a2.22,2.22,0,0,1-.34.69,1.77,1.77,0,0,1-.48.43,2,2,0,0,1-.6.22,3.85,3.85,0,0,1-.69.06l-.68,0-.75-.1.2-1.15.34.06.33,0h.38a.91.91,0,0,0,1-.8l.08-.36Z" fill="#0b0c0c"/><path d="M456.82,338.29a3.12,3.12,0,0,0,1.05-.17,2.63,2.63,0,0,0,.89-.54,2.75,2.75,0,0,0,.62-.94,3.47,3.47,0,0,0,.23-1.35v-7.16H461v7.34a4.25,4.25,0,0,1-.32,1.67,3.8,3.8,0,0,1-2.19,2.07,4.62,4.62,0,0,1-1.63.28,4.52,4.52,0,0,1-1.62-.28,3.85,3.85,0,0,1-1.32-.81,3.91,3.91,0,0,1-.88-1.26,4.25,4.25,0,0,1-.32-1.67v-7.34H454v7.16a3.67,3.67,0,0,0,.23,1.35,2.75,2.75,0,0,0,.62.94,2.49,2.49,0,0,0,.88.54A3.12,3.12,0,0,0,456.82,338.29Z" fill="#0b0c0c"/><path d="M468.68,337.12a2.09,2.09,0,0,1-.24,1,2.43,2.43,0,0,1-.65.74,2.84,2.84,0,0,1-.94.46,3.58,3.58,0,0,1-1.08.16,4.76,4.76,0,0,1-1.68-.3,4.56,4.56,0,0,1-1.44-.86l.72-.93.43.34a3.76,3.76,0,0,0,.56.33,3.37,3.37,0,0,0,.65.25,2.59,2.59,0,0,0,.74.1,2.51,2.51,0,0,0,.62-.08,2,2,0,0,0,.51-.24,1.44,1.44,0,0,0,.35-.39,1,1,0,0,0,.13-.5.94.94,0,0,0-.14-.52,1.06,1.06,0,0,0-.37-.36,2.55,2.55,0,0,0-.55-.26l-.66-.22-.5-.16c-.28-.1-.55-.21-.81-.32a2.74,2.74,0,0,1-.69-.45,2,2,0,0,1-.48-.62,2,2,0,0,1-.17-.86,2,2,0,0,1,.17-.81,2,2,0,0,1,.53-.72,2.77,2.77,0,0,1,.9-.52,3.8,3.8,0,0,1,1.29-.2,4,4,0,0,1,1.52.28,4.2,4.2,0,0,1,1.18.68l-.69.94a2.64,2.64,0,0,0-.4-.31,3,3,0,0,0-.5-.26,3.35,3.35,0,0,0-.56-.19,2.78,2.78,0,0,0-.57-.07,2.45,2.45,0,0,0-.72.1,1.36,1.36,0,0,0-.48.26,1,1,0,0,0-.34.73,1,1,0,0,0,.11.46,1.14,1.14,0,0,0,.31.31,2,2,0,0,0,.44.23l.51.19.66.22a7.73,7.73,0,0,1,.86.33,3.39,3.39,0,0,1,.68.4,2.26,2.26,0,0,1,.59.69A2.07,2.07,0,0,1,468.68,337.12Z" fill="#0b0c0c"/><path d="M471.59,335.75a3.51,3.51,0,0,0,.23,1,2.47,2.47,0,0,0,.51.82,2.29,2.29,0,0,0,.76.54,2.41,2.41,0,0,0,1,.19,2.81,2.81,0,0,0,1.17-.22,4.34,4.34,0,0,0,.93-.56l.67.95a4.88,4.88,0,0,1-1.25.7,4.19,4.19,0,0,1-1.58.28,3.79,3.79,0,0,1-1.57-.31,3.35,3.35,0,0,1-1.2-.86,3.77,3.77,0,0,1-.76-1.31,4.94,4.94,0,0,1-.27-1.66,5,5,0,0,1,.27-1.68,4.07,4.07,0,0,1,.73-1.31,3.38,3.38,0,0,1,1.15-.86,3.52,3.52,0,0,1,1.47-.31,3.25,3.25,0,0,1,1.42.31,3,3,0,0,1,1.08.86,4,4,0,0,1,.69,1.31,5.84,5.84,0,0,1,.23,1.66v.42Zm2.2-3.41a2,2,0,0,0-1.56.72,2.55,2.55,0,0,0-.44.75,2.71,2.71,0,0,0-.18.88h4.22a2.91,2.91,0,0,0-.16-.88,2.24,2.24,0,0,0-.4-.75,2,2,0,0,0-.64-.52A1.8,1.8,0,0,0,473.79,332.34Z" fill="#0b0c0c"/><path d="M483.16,332.52H483a3.85,3.85,0,0,0-1,.12,2,2,0,0,0-.81.42,2,2,0,0,0-.56.83,3.46,3.46,0,0,0-.22,1.35v4.09h-1.31v-8h1.31v1.27a2.07,2.07,0,0,1,.4-.62,2.18,2.18,0,0,1,.57-.44,2.68,2.68,0,0,1,.68-.27,3.65,3.65,0,0,1,.74-.08h.38Z" fill="#0b0c0c"/><path d="M487.31,329a.84.84,0,0,1,.07-.35,1.15,1.15,0,0,1,.2-.29.73.73,0,0,1,.29-.19.85.85,0,0,1,.35-.08,1,1,0,0,1,.64.27,1.12,1.12,0,0,1,.19.29.85.85,0,0,1,.08.35.86.86,0,0,1-.08.36.85.85,0,0,1-.48.48.82.82,0,0,1-.35.08,1,1,0,0,1-.64-.27,1,1,0,0,1-.2-.29A.86.86,0,0,1,487.31,329Zm1.55,10.29h-1.31v-8h1.31Z" fill="#0b0c0c"/><path d="M496.61,337.12a2.1,2.1,0,0,1-.25,1,2.3,2.3,0,0,1-.65.74,2.75,2.75,0,0,1-.94.46,3.58,3.58,0,0,1-1.08.16,4.8,4.8,0,0,1-1.68-.3,4.56,4.56,0,0,1-1.44-.86l.72-.93c.13.11.27.22.44.34a3.2,3.2,0,0,0,.55.33,3.37,3.37,0,0,0,.65.25,2.66,2.66,0,0,0,.75.1,2.49,2.49,0,0,0,.61-.08,2,2,0,0,0,.51-.24,1.3,1.3,0,0,0,.35-.39,1,1,0,0,0,.13-.5.94.94,0,0,0-.14-.52,1,1,0,0,0-.37-.36,2.55,2.55,0,0,0-.55-.26l-.65-.22-.5-.16-.82-.32a2.74,2.74,0,0,1-.69-.45,1.79,1.79,0,0,1-.47-.62,1.88,1.88,0,0,1-.18-.86,2,2,0,0,1,.7-1.53,3,3,0,0,1,.9-.52,3.88,3.88,0,0,1,1.29-.2,4,4,0,0,1,1.52.28,4.06,4.06,0,0,1,1.18.68l-.68.94a2.75,2.75,0,0,0-.41-.31,3,3,0,0,0-.5-.26,3.58,3.58,0,0,0-.55-.19,3,3,0,0,0-.57-.07,2.52,2.52,0,0,0-.73.1,1.36,1.36,0,0,0-.48.26,1,1,0,0,0-.26.35,1,1,0,0,0-.08.38.85.85,0,0,0,.12.46,1.1,1.1,0,0,0,.3.31,2,2,0,0,0,.44.23l.51.19.66.22a7.73,7.73,0,0,1,.86.33,3.79,3.79,0,0,1,.69.4,2.23,2.23,0,0,1,.58.69A2,2,0,0,1,496.61,337.12Z" fill="#0b0c0c"/><path d="M503.17,339.33l-2.53-8h1.49l1.91,6.77,1.91-6.77h1.49l-2.53,8Z" fill="#0b0c0c"/><path d="M509.76,335.75a3.51,3.51,0,0,0,.23,1,2.47,2.47,0,0,0,.51.82,2.33,2.33,0,0,0,.77.54,2.38,2.38,0,0,0,1,.19,2.79,2.79,0,0,0,1.16-.22,4.34,4.34,0,0,0,.93-.56l.67.95a4.81,4.81,0,0,1-1.24.7,4.25,4.25,0,0,1-1.59.28,3.83,3.83,0,0,1-1.57-.31,3.35,3.35,0,0,1-1.2-.86,3.77,3.77,0,0,1-.76-1.31,4.94,4.94,0,0,1-.26-1.66,5,5,0,0,1,.26-1.68,3.91,3.91,0,0,1,.74-1.31,3.25,3.25,0,0,1,1.14-.86,3.52,3.52,0,0,1,1.47-.31,3.33,3.33,0,0,1,1.43.31,3.09,3.09,0,0,1,1.07.86,4,4,0,0,1,.69,1.31,5.5,5.5,0,0,1,.24,1.66v.42Zm2.2-3.41a2,2,0,0,0-.89.2,2,2,0,0,0-.67.52,2.55,2.55,0,0,0-.44.75,2.71,2.71,0,0,0-.18.88H514a2.91,2.91,0,0,0-.16-.88,2.24,2.24,0,0,0-.4-.75,2,2,0,0,0-.64-.52A1.77,1.77,0,0,0,512,332.34Z" fill="#0b0c0c"/><path d="M521.33,332.52h-.21a3.85,3.85,0,0,0-1,.12,2,2,0,0,0-.81.42,2.13,2.13,0,0,0-.56.83,3.68,3.68,0,0,0-.21,1.35v4.09h-1.32v-8h1.32v1.27A2,2,0,0,1,519,332a2.18,2.18,0,0,1,.57-.44,2.68,2.68,0,0,1,.68-.27,3.65,3.65,0,0,1,.74-.08h.38Z" fill="#0b0c0c"/><path d="M522.63,329a.84.84,0,0,1,.07-.35,1.15,1.15,0,0,1,.2-.29.81.81,0,0,1,.29-.19.85.85,0,0,1,.35-.08.78.78,0,0,1,.35.08.81.81,0,0,1,.29.19,1.15,1.15,0,0,1,.2.29.94.94,0,0,1,0,.71,1,1,0,0,1-.2.29,1,1,0,0,1-.29.19.78.78,0,0,1-.35.08.85.85,0,0,1-.35-.08,1,1,0,0,1-.29-.19,1,1,0,0,1-.2-.29A.86.86,0,0,1,522.63,329Zm1.55,10.29h-1.31v-8h1.31Z" fill="#0b0c0c"/><path d="M528.45,331.35H530v1.16h-1.59v6.82h-1.31v-6.82h-1.33v-1.16h1.33v-1.48a2.1,2.1,0,0,1,.16-.88,1.47,1.47,0,0,1,.46-.58,1.69,1.69,0,0,1,.69-.32,3.49,3.49,0,0,1,.88-.1,6.24,6.24,0,0,1,.81,0l.47.07-.1,1.12-.27,0-.31,0-.31,0h-.24a1,1,0,0,0-.46.09.7.7,0,0,0-.29.21.68.68,0,0,0-.14.31,1.37,1.37,0,0,0,0,.36Z" fill="#0b0c0c"/><path d="M531.44,329a.85.85,0,0,1,.08-.35.91.91,0,0,1,.19-.29.81.81,0,0,1,.29-.19.86.86,0,0,1,.36-.08.85.85,0,0,1,.35.08.77.77,0,0,1,.28.19,1.15,1.15,0,0,1,.2.29.84.84,0,0,1,.07.35.86.86,0,0,1-.07.36,1,1,0,0,1-.2.29.92.92,0,0,1-.28.19.85.85,0,0,1-.35.08.86.86,0,0,1-.36-.08,1,1,0,0,1-.29-.19.81.81,0,0,1-.19-.29A.86.86,0,0,1,531.44,329ZM533,339.33h-1.32v-8H533Z" fill="#0b0c0c"/><path d="M536.29,335.75a3.5,3.5,0,0,0,.22,1,2.84,2.84,0,0,0,.51.82,2.33,2.33,0,0,0,.77.54,2.38,2.38,0,0,0,1,.19,2.87,2.87,0,0,0,1.17-.22,4.52,4.52,0,0,0,.92-.56l.68.95a4.88,4.88,0,0,1-1.25.7,4.19,4.19,0,0,1-1.58.28,3.79,3.79,0,0,1-1.57-.31,3.35,3.35,0,0,1-1.2-.86,3.62,3.62,0,0,1-.76-1.31,4.94,4.94,0,0,1-.27-1.66,5.28,5.28,0,0,1,.26-1.68,4.09,4.09,0,0,1,.74-1.31,3.44,3.44,0,0,1,1.14-.86,3.56,3.56,0,0,1,1.48-.31,3.29,3.29,0,0,1,1.42.31,3.22,3.22,0,0,1,1.08.86,4.17,4.17,0,0,1,.68,1.31,5.5,5.5,0,0,1,.24,1.66v.42Zm2.19-3.41a2,2,0,0,0-.89.2,2.12,2.12,0,0,0-.67.52,2.79,2.79,0,0,0-.44.75,3.36,3.36,0,0,0-.18.88h4.23a3.26,3.26,0,0,0-.16-.88,2.46,2.46,0,0,0-.41-.75,1.87,1.87,0,0,0-.63-.52A1.81,1.81,0,0,0,538.48,332.34Z" fill="#0b0c0c"/><path d="M549,338.42a2.47,2.47,0,0,1-1,.78,3.25,3.25,0,0,1-1.38.29,3.08,3.08,0,0,1-2.47-1.17,3.79,3.79,0,0,1-.68-1.31,5.46,5.46,0,0,1-.24-1.66,5.57,5.57,0,0,1,.24-1.67,3.79,3.79,0,0,1,.68-1.31,3.05,3.05,0,0,1,2.47-1.18,3.25,3.25,0,0,1,1.38.29,2.56,2.56,0,0,1,1,.78v-4.13h1.31v11.2H549Zm-4.37-3a4.23,4.23,0,0,0,.15,1.16,3,3,0,0,0,.43.94,2.21,2.21,0,0,0,.71.62,2.08,2.08,0,0,0,1,.23,2.19,2.19,0,0,0,.92-.18,1.93,1.93,0,0,0,.66-.5,2,2,0,0,0,.4-.73,3.12,3.12,0,0,0,.13-.93v-1.3a3,3,0,0,0-.13-.92,2,2,0,0,0-.4-.74,1.9,1.9,0,0,0-.66-.49,2.19,2.19,0,0,0-.92-.18,2.08,2.08,0,0,0-1,.22,2.13,2.13,0,0,0-.71.63,2.85,2.85,0,0,0-.43.93,4.34,4.34,0,0,0-.15,1.16Z" fill="#0b0c0c"/><path d="M557.7,337.35a2.34,2.34,0,0,0,0,.38.58.58,0,0,0,.13.31.74.74,0,0,0,.31.21,1.6,1.6,0,0,0,.55.08H559l.26,0,.28,0,.22,0,.15,1.15-.47.06-.46,0-.5,0a3.2,3.2,0,0,1-.85-.1,1.71,1.71,0,0,1-.65-.31,1.44,1.44,0,0,1-.4-.58,2.22,2.22,0,0,1-.14-.86v-5.13h-1.51v-1.16h1.51v-2.61l1.31-.46v3.07h2.22v1.16H557.7Z" fill="#0b0c0c"/><path d="M564.74,331.19a3.74,3.74,0,0,1,1.51.31,3.41,3.41,0,0,1,1.16.86,4.09,4.09,0,0,1,.74,1.31,5,5,0,0,1,.27,1.68,4.94,4.94,0,0,1-.27,1.66,3.89,3.89,0,0,1-.74,1.31,3.29,3.29,0,0,1-1.16.86,3.83,3.83,0,0,1-3,0,3.38,3.38,0,0,1-1.16-.86,3.91,3.91,0,0,1-.75-1.31,5.2,5.2,0,0,1-.26-1.66,5.28,5.28,0,0,1,.26-1.68,4.11,4.11,0,0,1,.75-1.31,3.51,3.51,0,0,1,1.16-.86A3.7,3.7,0,0,1,564.74,331.19Zm0,7.15a2,2,0,0,0,1-.24,2.24,2.24,0,0,0,.73-.64,3.13,3.13,0,0,0,.44-.94,4.15,4.15,0,0,0,.15-1.12v-.1a4.24,4.24,0,0,0-.15-1.14,3,3,0,0,0-.44-.94,2.24,2.24,0,0,0-.73-.64,2,2,0,0,0-1-.24,2.07,2.07,0,0,0-1,.24,2.2,2.2,0,0,0-.72.64,2.81,2.81,0,0,0-.44.94,4.24,4.24,0,0,0-.15,1.14v.1a4.15,4.15,0,0,0,.15,1.12,2.91,2.91,0,0,0,.44.94,2.2,2.2,0,0,0,.72.64A2.07,2.07,0,0,0,564.74,338.34Z" fill="#0b0c0c"/><path d="M579.79,339.33h-1.31v-.91a2.37,2.37,0,0,1-1,.81,3.41,3.41,0,0,1-1.34.26,2.79,2.79,0,0,1-1.16-.22,2.55,2.55,0,0,1-.84-.59,2.51,2.51,0,0,1-.5-.87,3.24,3.24,0,0,1-.17-1v-5.42h1.32v5a3,3,0,0,0,.12.9,1.64,1.64,0,0,0,.36.59,1.21,1.21,0,0,0,.52.34,1.91,1.91,0,0,0,.64.1,2.28,2.28,0,0,0,.78-.13,1.76,1.76,0,0,0,.65-.41,1.88,1.88,0,0,0,.45-.69,2.64,2.64,0,0,0,.17-1v-4.73h1.31Z" fill="#0b0c0c"/><path d="M587.54,337.12a2.09,2.09,0,0,1-.24,1,2.33,2.33,0,0,1-.66.74,2.7,2.7,0,0,1-.93.46,3.58,3.58,0,0,1-1.08.16,4.72,4.72,0,0,1-1.68-.3,4.56,4.56,0,0,1-1.44-.86l.72-.93.43.34a4.21,4.21,0,0,0,.55.33,3.74,3.74,0,0,0,.66.25,2.59,2.59,0,0,0,.74.1,2.51,2.51,0,0,0,.62-.08,2,2,0,0,0,.51-.24,1.44,1.44,0,0,0,.35-.39,1,1,0,0,0,.12-.5.93.93,0,0,0-.13-.52,1.06,1.06,0,0,0-.37-.36,2.55,2.55,0,0,0-.55-.26l-.66-.22-.5-.16c-.28-.1-.55-.21-.81-.32a2.74,2.74,0,0,1-.69-.45,2,2,0,0,1-.48-.62,2,2,0,0,1-.17-.86,2,2,0,0,1,.17-.81,2,2,0,0,1,.53-.72,2.77,2.77,0,0,1,.9-.52,3.8,3.8,0,0,1,1.29-.2,4,4,0,0,1,1.52.28,4.2,4.2,0,0,1,1.18.68l-.69.94a2.64,2.64,0,0,0-.4-.31,3.4,3.4,0,0,0-.5-.26,3.35,3.35,0,0,0-.56-.19,2.78,2.78,0,0,0-.57-.07,2.45,2.45,0,0,0-.72.1,1.36,1.36,0,0,0-.48.26,1,1,0,0,0-.34.73.85.85,0,0,0,.11.46,1.14,1.14,0,0,0,.31.31,2,2,0,0,0,.44.23l.51.19.66.22a7.73,7.73,0,0,1,.86.33,3.39,3.39,0,0,1,.68.4,2.26,2.26,0,0,1,.59.69A2.07,2.07,0,0,1,587.54,337.12Z" fill="#0b0c0c"/><path d="M590.45,335.75a3.22,3.22,0,0,0,.23,1,2.47,2.47,0,0,0,.51.82,2.29,2.29,0,0,0,.76.54,2.41,2.41,0,0,0,1,.19,2.81,2.81,0,0,0,1.17-.22,4.34,4.34,0,0,0,.93-.56l.67.95a4.88,4.88,0,0,1-1.25.7,4.19,4.19,0,0,1-1.58.28,3.79,3.79,0,0,1-1.57-.31,3.35,3.35,0,0,1-1.2-.86,3.77,3.77,0,0,1-.76-1.31,4.94,4.94,0,0,1-.27-1.66,5,5,0,0,1,.27-1.68,4.07,4.07,0,0,1,.73-1.31,3.44,3.44,0,0,1,1.14-.86,3.6,3.6,0,0,1,1.48-.31,3.25,3.25,0,0,1,1.42.31,3.12,3.12,0,0,1,1.08.86,4,4,0,0,1,.69,1.31,5.84,5.84,0,0,1,.23,1.66v.42Zm2.19-3.41a2,2,0,0,0-1.55.72,2.35,2.35,0,0,0-.44.75,3,3,0,0,0-.19.88h4.23a2.91,2.91,0,0,0-.16-.88,2.26,2.26,0,0,0-.41-.75,1.87,1.87,0,0,0-.63-.52A1.81,1.81,0,0,0,592.64,332.34Z" fill="#0b0c0c"/><path d="M456.87,354.9a4.61,4.61,0,0,1,.23-1.46,3.3,3.3,0,0,1,.65-1.18,3,3,0,0,1,2.36-1.07,3.18,3.18,0,0,1,1.25.26,2.43,2.43,0,0,1,1,.81v-.91h1.32v8a2.41,2.41,0,0,1-.3,1.25,2.45,2.45,0,0,1-.79.81,3.47,3.47,0,0,1-1.1.44,6.44,6.44,0,0,1-1.24.13,6.06,6.06,0,0,1-.73,0c-.26,0-.51-.07-.77-.12a6.93,6.93,0,0,1-.75-.2,5.52,5.52,0,0,1-.71-.28l.48-1.1.49.21c.17.07.36.13.56.19a4.27,4.27,0,0,0,.64.14,4.38,4.38,0,0,0,.75.06,4.15,4.15,0,0,0,.91-.1,1.9,1.9,0,0,0,.67-.32,1.35,1.35,0,0,0,.42-.55,1.89,1.89,0,0,0,.15-.79v-1.52a2.38,2.38,0,0,1-1,.82,3.18,3.18,0,0,1-1.25.26,3,3,0,0,1-1.34-.29,2.92,2.92,0,0,1-1-.79,3.34,3.34,0,0,1-.65-1.17A4.62,4.62,0,0,1,456.87,354.9Zm5.52,0a3.85,3.85,0,0,0-.11-1,2.27,2.27,0,0,0-.37-.8,1.74,1.74,0,0,0-.64-.53,2,2,0,0,0-.92-.19,2.15,2.15,0,0,0-1,.19,1.92,1.92,0,0,0-.66.54,2.2,2.2,0,0,0-.38.8,3.46,3.46,0,0,0-.13,1v.07a3.51,3.51,0,0,0,.13,1,2.23,2.23,0,0,0,.38.79,1.92,1.92,0,0,0,.66.54,2.15,2.15,0,0,0,1,.19,2,2,0,0,0,.92-.19,1.74,1.74,0,0,0,.64-.53,2.22,2.22,0,0,0,.37-.79,4,4,0,0,0,.11-1Z" fill="#0b0c0c"/><path d="M469.27,351.19a3.74,3.74,0,0,1,1.51.31,3.41,3.41,0,0,1,1.16.86,3.91,3.91,0,0,1,.74,1.31,5,5,0,0,1,.27,1.68,4.94,4.94,0,0,1-.27,1.66,3.73,3.73,0,0,1-.74,1.31,3.29,3.29,0,0,1-1.16.86,3.58,3.58,0,0,1-1.51.31,3.5,3.5,0,0,1-1.5-.31,3.2,3.2,0,0,1-1.16-.86,3.6,3.6,0,0,1-.75-1.31,4.94,4.94,0,0,1-.27-1.66,5,5,0,0,1,.27-1.68,3.77,3.77,0,0,1,.75-1.31,3.32,3.32,0,0,1,1.16-.86A3.66,3.66,0,0,1,469.27,351.19Zm0,7.15a2,2,0,0,0,1-.24,2.24,2.24,0,0,0,.73-.64,2.91,2.91,0,0,0,.44-.94,4.15,4.15,0,0,0,.15-1.12v-.1a4.24,4.24,0,0,0-.15-1.14,2.81,2.81,0,0,0-.44-.94,2.24,2.24,0,0,0-.73-.64,2,2,0,0,0-1-.24,2,2,0,0,0-1,.24,2.14,2.14,0,0,0-.73.64,2.81,2.81,0,0,0-.44.94,4.24,4.24,0,0,0-.15,1.14v.1a4.15,4.15,0,0,0,.15,1.12,2.91,2.91,0,0,0,.44.94,2.14,2.14,0,0,0,.73.64A2,2,0,0,0,469.27,358.34Z" fill="#0b0c0c"/><path d="M476.43,359.33l-2.54-8h1.5l1.91,6.77,1.91-6.77h1.49l-2.53,8Z" fill="#0b0c0c"/><path d="M483,355.75a3.22,3.22,0,0,0,.23,1,2.47,2.47,0,0,0,.51.82,2.29,2.29,0,0,0,.76.54,2.41,2.41,0,0,0,1,.19,2.81,2.81,0,0,0,1.17-.22,4.34,4.34,0,0,0,.93-.56l.67.95a4.88,4.88,0,0,1-1.25.7,4.19,4.19,0,0,1-1.58.28,3.79,3.79,0,0,1-1.57-.31,3.35,3.35,0,0,1-1.2-.86,3.77,3.77,0,0,1-.76-1.31,4.94,4.94,0,0,1-.27-1.66,5,5,0,0,1,.27-1.68,4.07,4.07,0,0,1,.73-1.31,3.38,3.38,0,0,1,1.15-.86,3.52,3.52,0,0,1,1.47-.31,3.25,3.25,0,0,1,1.42.31,3.12,3.12,0,0,1,1.08.86,4,4,0,0,1,.69,1.31,5.84,5.84,0,0,1,.23,1.66v.42Zm2.19-3.41a2,2,0,0,0-1.55.72,2.55,2.55,0,0,0-.44.75,2.71,2.71,0,0,0-.18.88h4.22a2.91,2.91,0,0,0-.16-.88,2.44,2.44,0,0,0-.4-.75,2,2,0,0,0-.64-.52A1.81,1.81,0,0,0,485.21,352.34Z" fill="#0b0c0c"/><path d="M494.59,352.52h-.21a3.85,3.85,0,0,0-1,.12,2,2,0,0,0-.81.42,2,2,0,0,0-.56.83,3.46,3.46,0,0,0-.22,1.35v4.09h-1.31v-8h1.31v1.27a2.07,2.07,0,0,1,.4-.62,2.18,2.18,0,0,1,.57-.44,2.68,2.68,0,0,1,.68-.27,3.65,3.65,0,0,1,.74-.08h.38Z" fill="#0b0c0c"/><path d="M496.13,351.35h1.31v.91a2.4,2.4,0,0,1,1-.81,3.32,3.32,0,0,1,1.33-.26,3,3,0,0,1,1.16.22,2.57,2.57,0,0,1,.84.6,2.46,2.46,0,0,1,.5.86,3.29,3.29,0,0,1,.17,1v5.42h-1.31v-5a3,3,0,0,0-.13-.9,1.73,1.73,0,0,0-.35-.6,1.42,1.42,0,0,0-.53-.34,2.08,2.08,0,0,0-2,.45,2.11,2.11,0,0,0-.47.68,2.45,2.45,0,0,0-.18,1v4.73h-1.31Z" fill="#0b0c0c"/><path d="M510.77,359.33h-1.31v-5a3,3,0,0,0-.13-.9,1.62,1.62,0,0,0-.35-.59,1.29,1.29,0,0,0-.5-.33,1.87,1.87,0,0,0-.62-.1,1.64,1.64,0,0,0-.65.13,1.45,1.45,0,0,0-.56.4,1.93,1.93,0,0,0-.4.69,3,3,0,0,0-.15,1v4.71h-1.31v-8h1.31v.91a2.43,2.43,0,0,1,.92-.81,2.68,2.68,0,0,1,1.17-.26,2.52,2.52,0,0,1,.58.08,2.38,2.38,0,0,1,.61.23,2.18,2.18,0,0,1,.56.41,2,2,0,0,1,.41.61,2.61,2.61,0,0,1,1.1-1,3,3,0,0,1,.66-.23,3.92,3.92,0,0,1,.68-.07,2.9,2.9,0,0,1,1.14.22,2.46,2.46,0,0,1,1.37,1.44,3.12,3.12,0,0,1,.17,1v5.46h-1.31v-5a2.67,2.67,0,0,0-.13-.9,1.64,1.64,0,0,0-.36-.59,1.39,1.39,0,0,0-.53-.33,1.77,1.77,0,0,0-.61-.1,1.64,1.64,0,0,0-.65.13,1.45,1.45,0,0,0-.56.4,2.09,2.09,0,0,0-.4.69,3,3,0,0,0-.15,1Z" fill="#0b0c0c"/><path d="M518.7,355.75a3.22,3.22,0,0,0,.23,1,2.47,2.47,0,0,0,.51.82,2.29,2.29,0,0,0,.76.54,2.41,2.41,0,0,0,1,.19,2.81,2.81,0,0,0,1.17-.22,4.34,4.34,0,0,0,.93-.56l.67.95a4.88,4.88,0,0,1-1.25.7,4.19,4.19,0,0,1-1.58.28,3.79,3.79,0,0,1-1.57-.31,3.35,3.35,0,0,1-1.2-.86,3.77,3.77,0,0,1-.76-1.31,4.94,4.94,0,0,1-.27-1.66,5,5,0,0,1,.27-1.68,4.07,4.07,0,0,1,.73-1.31,3.44,3.44,0,0,1,1.14-.86,3.6,3.6,0,0,1,1.48-.31,3.25,3.25,0,0,1,1.42.31,3.12,3.12,0,0,1,1.08.86,3.8,3.8,0,0,1,.68,1.31,5.5,5.5,0,0,1,.24,1.66v.42Zm2.19-3.41a2,2,0,0,0-1.55.72,2.35,2.35,0,0,0-.44.75,3,3,0,0,0-.19.88h4.23a2.91,2.91,0,0,0-.16-.88,2.44,2.44,0,0,0-.4-.75,2,2,0,0,0-.64-.52A1.81,1.81,0,0,0,520.89,352.34Z" fill="#0b0c0c"/><path d="M526.19,351.35h1.31v.91a2.4,2.4,0,0,1,1-.81,3.36,3.36,0,0,1,1.33-.26,3,3,0,0,1,1.16.22,2.38,2.38,0,0,1,.84.6,2.46,2.46,0,0,1,.5.86,3,3,0,0,1,.17,1v5.42H531.2v-5a2.67,2.67,0,0,0-.13-.9,1.59,1.59,0,0,0-.35-.6,1.38,1.38,0,0,0-.52-.34,2,2,0,0,0-.65-.1,1.91,1.91,0,0,0-.74.14,1.79,1.79,0,0,0-.65.41,2,2,0,0,0-.48.68,2.45,2.45,0,0,0-.18,1v4.73h-1.31Z" fill="#0b0c0c"/><path d="M536.91,357.35a2.34,2.34,0,0,0,0,.38.66.66,0,0,0,.13.31.74.74,0,0,0,.31.21,1.6,1.6,0,0,0,.55.08h.23l.27,0,.27,0,.23,0,.14,1.15-.47.06-.46,0-.5,0a3.2,3.2,0,0,1-.85-.1,1.71,1.71,0,0,1-.65-.31,1.44,1.44,0,0,1-.4-.58,2.22,2.22,0,0,1-.14-.86v-5.13h-1.51v-1.16h1.51v-2.61l1.31-.46v3.07h2.22v1.16h-2.22Z" fill="#0b0c0c"/><path d="M549.3,357.12a2,2,0,0,1-.25,1,2.3,2.3,0,0,1-.65.74,2.7,2.7,0,0,1-.93.46,3.58,3.58,0,0,1-1.08.16,4.81,4.81,0,0,1-1.69-.3,4.51,4.51,0,0,1-1.43-.86l.72-.93c.12.11.27.22.43.34a4.21,4.21,0,0,0,.55.33,3.46,3.46,0,0,0,.66.25,2.55,2.55,0,0,0,.74.1,2.43,2.43,0,0,0,.61-.08,1.92,1.92,0,0,0,.52-.24,1.26,1.26,0,0,0,.34-.39,1.07,1.07,0,0,0,0-1,1.09,1.09,0,0,0-.38-.36,2.26,2.26,0,0,0-.54-.26l-.66-.22-.5-.16c-.28-.1-.55-.21-.81-.32a2.74,2.74,0,0,1-.69-.45,2,2,0,0,1-.48-.62,1.89,1.89,0,0,1-.17-.86,2,2,0,0,1,.17-.81,2.1,2.1,0,0,1,.52-.72,2.94,2.94,0,0,1,.91-.52,3.8,3.8,0,0,1,1.29-.2,4,4,0,0,1,1.52.28,4.2,4.2,0,0,1,1.18.68l-.69.94a2.64,2.64,0,0,0-.4-.31,3.4,3.4,0,0,0-.5-.26,3.69,3.69,0,0,0-.56-.19,2.78,2.78,0,0,0-.57-.07,2.52,2.52,0,0,0-.73.1,1.4,1.4,0,0,0-.47.26.87.87,0,0,0-.26.35.88.88,0,0,0-.09.38.85.85,0,0,0,.12.46,1.14,1.14,0,0,0,.31.31,1.83,1.83,0,0,0,.44.23l.51.19.65.22a7,7,0,0,1,.86.33,3.79,3.79,0,0,1,.69.4,2.1,2.1,0,0,1,.58.69A2,2,0,0,1,549.3,357.12Z" fill="#0b0c0c"/><path d="M552.21,355.75a3.5,3.5,0,0,0,.22,1,2.67,2.67,0,0,0,.52.82,2.29,2.29,0,0,0,.76.54,2.38,2.38,0,0,0,1,.19,2.87,2.87,0,0,0,1.17-.22,4.6,4.6,0,0,0,.93-.56l.67.95a4.88,4.88,0,0,1-1.25.7,4.19,4.19,0,0,1-1.58.28,3.79,3.79,0,0,1-1.57-.31,3.35,3.35,0,0,1-1.2-.86,3.62,3.62,0,0,1-.76-1.31,4.94,4.94,0,0,1-.27-1.66,5.28,5.28,0,0,1,.26-1.68,4.09,4.09,0,0,1,.74-1.31,3.44,3.44,0,0,1,1.14-.86,3.6,3.6,0,0,1,1.48-.31,3.29,3.29,0,0,1,1.42.31,3.22,3.22,0,0,1,1.08.86,4,4,0,0,1,.68,1.31,5.5,5.5,0,0,1,.24,1.66v.42Zm2.19-3.41a2,2,0,0,0-.89.2,2.12,2.12,0,0,0-.67.52,2.53,2.53,0,0,0-.43.75,3,3,0,0,0-.19.88h4.23a3.26,3.26,0,0,0-.16-.88,2.26,2.26,0,0,0-.41-.75,1.87,1.87,0,0,0-.63-.52A1.81,1.81,0,0,0,554.4,352.34Z" fill="#0b0c0c"/><path d="M563.78,352.52h-.21a3.79,3.79,0,0,0-1,.12,2,2,0,0,0-.81.42,2,2,0,0,0-.57.83,3.68,3.68,0,0,0-.21,1.35v4.09H559.7v-8H561v1.27a1.89,1.89,0,0,1,.4-.62,2.18,2.18,0,0,1,.57-.44,2.54,2.54,0,0,1,.68-.27,3.55,3.55,0,0,1,.73-.08h.39Z" fill="#0b0c0c"/><path d="M567,359.33l-2.53-8H566l1.91,6.77,1.91-6.77h1.49l-2.53,8Z" fill="#0b0c0c"/><path d="M572.64,349a.85.85,0,0,1,.08-.35,1.12,1.12,0,0,1,.19-.29.81.81,0,0,1,.29-.19.86.86,0,0,1,.36-.08.85.85,0,0,1,.35.08.91.91,0,0,1,.29.19,1.12,1.12,0,0,1,.19.29.84.84,0,0,1,.07.35.86.86,0,0,1-.07.36,1,1,0,0,1-.19.29,1.12,1.12,0,0,1-.29.19.85.85,0,0,1-.35.08.86.86,0,0,1-.36-.08.85.85,0,0,1-.48-.48A.86.86,0,0,1,572.64,349Zm1.56,10.29h-1.31v-8h1.31Z" fill="#0b0c0c"/><path d="M577.47,355.38a4.24,4.24,0,0,0,.15,1.14,3,3,0,0,0,.44.94,2.11,2.11,0,0,0,.72.64,2.07,2.07,0,0,0,1,.24,2.17,2.17,0,0,0,.69-.1,2,2,0,0,0,.57-.29,2.3,2.3,0,0,0,.46-.42,3.74,3.74,0,0,0,.35-.53l1.09.62a3.36,3.36,0,0,1-.52.77,3.15,3.15,0,0,1-.72.59,3.73,3.73,0,0,1-.89.38,3.88,3.88,0,0,1-1,.13,3.5,3.5,0,0,1-1.5-.31,3.29,3.29,0,0,1-1.16-.86,3.91,3.91,0,0,1-.75-1.31,4.9,4.9,0,0,1-.27-1.66,5,5,0,0,1,.27-1.68,4.11,4.11,0,0,1,.75-1.31,3.41,3.41,0,0,1,1.16-.86,3.66,3.66,0,0,1,1.5-.31,3.88,3.88,0,0,1,1,.14,3.34,3.34,0,0,1,.89.37,3.15,3.15,0,0,1,.72.59,3.36,3.36,0,0,1,.52.77l-1.09.63a3.24,3.24,0,0,0-.35-.53,2.08,2.08,0,0,0-.46-.43,2,2,0,0,0-.57-.28,2.17,2.17,0,0,0-.69-.11,2.07,2.07,0,0,0-1,.24,2.11,2.11,0,0,0-.72.64,3,3,0,0,0-.44.94,4.24,4.24,0,0,0-.15,1.14Z" fill="#0b0c0c"/><path d="M585.59,355.75a3.51,3.51,0,0,0,.23,1,2.47,2.47,0,0,0,.51.82,2.29,2.29,0,0,0,.76.54,2.41,2.41,0,0,0,1,.19,2.81,2.81,0,0,0,1.17-.22,4.34,4.34,0,0,0,.93-.56l.67.95a4.88,4.88,0,0,1-1.25.7,4.19,4.19,0,0,1-1.58.28,3.79,3.79,0,0,1-1.57-.31,3.35,3.35,0,0,1-1.2-.86,3.77,3.77,0,0,1-.76-1.31,4.94,4.94,0,0,1-.27-1.66,5,5,0,0,1,.27-1.68,4.07,4.07,0,0,1,.73-1.31,3.38,3.38,0,0,1,1.15-.86,3.52,3.52,0,0,1,1.47-.31,3.25,3.25,0,0,1,1.42.31,3,3,0,0,1,1.08.86,4,4,0,0,1,.69,1.31,5.84,5.84,0,0,1,.23,1.66v.42Zm2.2-3.41a2,2,0,0,0-1.56.72,2.55,2.55,0,0,0-.44.75,2.71,2.71,0,0,0-.18.88h4.22a2.91,2.91,0,0,0-.16-.88,2.24,2.24,0,0,0-.4-.75,2,2,0,0,0-.64-.52A1.8,1.8,0,0,0,587.79,352.34Z" fill="#0b0c0c"/><path d="M127.64,338.29a3.64,3.64,0,0,0,1.09-.15,2.82,2.82,0,0,0,1.41-1,3,3,0,0,0,.38-.7,3.27,3.27,0,0,0,.21-.72,3.41,3.41,0,0,0,.07-.68v-.46h-3.14v-1.16H132v5.92h-1.24v-1.5a4.25,4.25,0,0,1-.66.78,3.73,3.73,0,0,1-.78.51,3.4,3.4,0,0,1-.87.28,4.88,4.88,0,0,1-.93.09,4.5,4.5,0,0,1-2-.45,4.41,4.41,0,0,1-1.5-1.21,5.71,5.71,0,0,1-.94-1.82,7.86,7.86,0,0,1-.32-2.26,7,7,0,0,1,.36-2.26,5.27,5.27,0,0,1,1-1.82,4.68,4.68,0,0,1,1.56-1.23,4.62,4.62,0,0,1,2.06-.45,5.21,5.21,0,0,1,1.33.17,4.78,4.78,0,0,1,1.16.47,4.49,4.49,0,0,1,1.67,1.68l-1.17.61a3.17,3.17,0,0,0-.48-.71,3.06,3.06,0,0,0-.65-.54,3.17,3.17,0,0,0-.82-.35,3.58,3.58,0,0,0-1-.13,3.22,3.22,0,0,0-1.54.37,3.51,3.51,0,0,0-1.11,1,4.4,4.4,0,0,0-.68,1.43,6.22,6.22,0,0,0-.22,1.67v.2a7.07,7.07,0,0,0,.2,1.67,4.28,4.28,0,0,0,.64,1.42,3.14,3.14,0,0,0,1.07,1A3,3,0,0,0,127.64,338.29Z" fill="#0b0c0c"/><path d="M137.52,331.19a3.74,3.74,0,0,1,1.51.31,3.41,3.41,0,0,1,1.16.86,3.91,3.91,0,0,1,.74,1.31,5,5,0,0,1,.27,1.68,4.94,4.94,0,0,1-.27,1.66,3.73,3.73,0,0,1-.74,1.31,3.29,3.29,0,0,1-1.16.86,3.58,3.58,0,0,1-1.51.31,3.5,3.5,0,0,1-1.5-.31,3.2,3.2,0,0,1-1.16-.86,3.6,3.6,0,0,1-.75-1.31,4.94,4.94,0,0,1-.27-1.66,5,5,0,0,1,.27-1.68,3.77,3.77,0,0,1,.75-1.31,3.32,3.32,0,0,1,1.16-.86A3.66,3.66,0,0,1,137.52,331.19Zm0,7.15a2,2,0,0,0,1-.24,2.24,2.24,0,0,0,.73-.64,2.91,2.91,0,0,0,.44-.94,4.15,4.15,0,0,0,.15-1.12v-.1a4.24,4.24,0,0,0-.15-1.14,2.81,2.81,0,0,0-.44-.94,2.24,2.24,0,0,0-.73-.64,2,2,0,0,0-1-.24,2,2,0,0,0-1,.24,2.14,2.14,0,0,0-.73.64,2.81,2.81,0,0,0-.44.94,4.24,4.24,0,0,0-.15,1.14v.1a4.15,4.15,0,0,0,.15,1.12,2.91,2.91,0,0,0,.44.94,2.14,2.14,0,0,0,.73.64A2,2,0,0,0,137.52,338.34Z" fill="#0b0c0c"/><path d="M144.68,339.33l-2.54-8h1.5l1.91,6.77,1.91-6.77H149l-2.53,8Z" fill="#0b0c0c"/><path d="M151.27,335.75a3.22,3.22,0,0,0,.23,1,2.47,2.47,0,0,0,.51.82,2.29,2.29,0,0,0,.76.54,2.41,2.41,0,0,0,1,.19,2.81,2.81,0,0,0,1.17-.22,4.34,4.34,0,0,0,.93-.56l.67.95a4.88,4.88,0,0,1-1.25.7,4.19,4.19,0,0,1-1.58.28,3.79,3.79,0,0,1-1.57-.31,3.35,3.35,0,0,1-1.2-.86,3.77,3.77,0,0,1-.76-1.31,4.94,4.94,0,0,1-.27-1.66,5,5,0,0,1,.27-1.68,4.07,4.07,0,0,1,.73-1.31,3.38,3.38,0,0,1,1.15-.86,3.52,3.52,0,0,1,1.47-.31,3.25,3.25,0,0,1,1.42.31,3.12,3.12,0,0,1,1.08.86,4,4,0,0,1,.69,1.31,5.84,5.84,0,0,1,.23,1.66v.42Zm2.19-3.41a2,2,0,0,0-1.55.72,2.55,2.55,0,0,0-.44.75,2.71,2.71,0,0,0-.18.88h4.22a2.91,2.91,0,0,0-.16-.88,2.44,2.44,0,0,0-.4-.75,2,2,0,0,0-.64-.52A1.81,1.81,0,0,0,153.46,332.34Z" fill="#0b0c0c"/><path d="M162.84,332.52h-.21a3.85,3.85,0,0,0-1,.12,2,2,0,0,0-.81.42,2,2,0,0,0-.56.83,3.46,3.46,0,0,0-.22,1.35v4.09h-1.31v-8h1.31v1.27a2.07,2.07,0,0,1,.4-.62,2.18,2.18,0,0,1,.57-.44,2.68,2.68,0,0,1,.68-.27,3.65,3.65,0,0,1,.74-.08h.38Z" fill="#0b0c0c"/><path d="M164.38,331.35h1.31v.91a2.4,2.4,0,0,1,1-.81,3.32,3.32,0,0,1,1.33-.26,3,3,0,0,1,1.16.22,2.57,2.57,0,0,1,.84.6,2.46,2.46,0,0,1,.5.86,3.29,3.29,0,0,1,.17,1v5.42h-1.31v-5a3,3,0,0,0-.13-.9,1.73,1.73,0,0,0-.35-.6,1.42,1.42,0,0,0-.53-.34,2.08,2.08,0,0,0-2,.45,2.11,2.11,0,0,0-.47.68,2.45,2.45,0,0,0-.18,1v4.73h-1.31Z" fill="#0b0c0c"/><path d="M179,339.33h-1.31v-5a3,3,0,0,0-.13-.9,1.62,1.62,0,0,0-.35-.59,1.29,1.29,0,0,0-.5-.33,1.87,1.87,0,0,0-.62-.1,1.64,1.64,0,0,0-.65.13,1.45,1.45,0,0,0-.56.4,1.93,1.93,0,0,0-.4.69,3,3,0,0,0-.15,1v4.71H173v-8h1.31v.91a2.43,2.43,0,0,1,.92-.81,2.64,2.64,0,0,1,1.17-.26,2.52,2.52,0,0,1,.58.08,2.38,2.38,0,0,1,.61.23,2.18,2.18,0,0,1,.56.41,2,2,0,0,1,.41.61,2.61,2.61,0,0,1,1.1-1,3,3,0,0,1,.66-.23,3.92,3.92,0,0,1,.68-.07,2.9,2.9,0,0,1,1.14.22,2.46,2.46,0,0,1,1.37,1.44,3.12,3.12,0,0,1,.17,1v5.46h-1.31v-5a2.67,2.67,0,0,0-.13-.9,1.64,1.64,0,0,0-.36-.59,1.39,1.39,0,0,0-.53-.33,1.77,1.77,0,0,0-.61-.1,1.64,1.64,0,0,0-.65.13,1.45,1.45,0,0,0-.56.4,2.09,2.09,0,0,0-.4.69,3,3,0,0,0-.15,1Z" fill="#0b0c0c"/><path d="M187,335.75a3.22,3.22,0,0,0,.23,1,2.47,2.47,0,0,0,.51.82,2.29,2.29,0,0,0,.76.54,2.41,2.41,0,0,0,1,.19,2.81,2.81,0,0,0,1.17-.22,4.34,4.34,0,0,0,.93-.56l.67.95a4.88,4.88,0,0,1-1.25.7,4.19,4.19,0,0,1-1.58.28,3.79,3.79,0,0,1-1.57-.31,3.35,3.35,0,0,1-1.2-.86,3.77,3.77,0,0,1-.76-1.31,4.94,4.94,0,0,1-.27-1.66,5,5,0,0,1,.27-1.68,4.07,4.07,0,0,1,.73-1.31,3.44,3.44,0,0,1,1.14-.86,3.6,3.6,0,0,1,1.48-.31,3.25,3.25,0,0,1,1.42.31,3.12,3.12,0,0,1,1.08.86,4,4,0,0,1,.69,1.31,5.84,5.84,0,0,1,.23,1.66v.42Zm2.19-3.41a2,2,0,0,0-1.55.72,2.35,2.35,0,0,0-.44.75,3,3,0,0,0-.19.88h4.23a2.91,2.91,0,0,0-.16-.88,2.26,2.26,0,0,0-.41-.75,1.87,1.87,0,0,0-.63-.52A1.81,1.81,0,0,0,189.14,332.34Z" fill="#0b0c0c"/><path d="M194.44,331.35h1.31v.91a2.4,2.4,0,0,1,1-.81,3.36,3.36,0,0,1,1.33-.26,3,3,0,0,1,1.16.22,2.38,2.38,0,0,1,.84.6,2.46,2.46,0,0,1,.5.86,3,3,0,0,1,.17,1v5.42h-1.31v-5a2.67,2.67,0,0,0-.13-.9,1.59,1.59,0,0,0-.35-.6,1.38,1.38,0,0,0-.52-.34,2,2,0,0,0-.65-.1,1.91,1.91,0,0,0-.74.14,1.79,1.79,0,0,0-.65.41,2,2,0,0,0-.48.68,2.45,2.45,0,0,0-.18,1v4.73h-1.31Z" fill="#0b0c0c"/><path d="M205.16,337.35a2.34,2.34,0,0,0,0,.38.66.66,0,0,0,.13.31.74.74,0,0,0,.31.21,1.6,1.6,0,0,0,.55.08h.23l.27,0,.27,0,.23,0,.14,1.15-.47.06-.46,0-.5,0a3.2,3.2,0,0,1-.85-.1,1.71,1.71,0,0,1-.65-.31,1.44,1.44,0,0,1-.4-.58,2.22,2.22,0,0,1-.14-.86v-5.13h-1.51v-1.16h1.51v-2.61l1.31-.46v3.07h2.22v1.16h-2.22Z" fill="#0b0c0c"/><path d="M217.55,337.12a2,2,0,0,1-.25,1,2.3,2.3,0,0,1-.65.74,2.7,2.7,0,0,1-.93.46,3.58,3.58,0,0,1-1.08.16,4.81,4.81,0,0,1-1.69-.3,4.51,4.51,0,0,1-1.43-.86l.72-.93c.12.11.27.22.43.34a4.21,4.21,0,0,0,.55.33,3.46,3.46,0,0,0,.66.25,2.55,2.55,0,0,0,.74.1,2.43,2.43,0,0,0,.61-.08,1.92,1.92,0,0,0,.52-.24,1.26,1.26,0,0,0,.34-.39,1.07,1.07,0,0,0,0-1,1.09,1.09,0,0,0-.38-.36,2.26,2.26,0,0,0-.54-.26l-.66-.22-.5-.16c-.28-.1-.55-.21-.81-.32a2.74,2.74,0,0,1-.69-.45,2,2,0,0,1-.48-.62,1.89,1.89,0,0,1-.17-.86,2,2,0,0,1,.17-.81,2.1,2.1,0,0,1,.52-.72,2.94,2.94,0,0,1,.91-.52,3.8,3.8,0,0,1,1.29-.2,4,4,0,0,1,1.52.28,4.2,4.2,0,0,1,1.18.68l-.69.94a2.64,2.64,0,0,0-.4-.31,3.4,3.4,0,0,0-.5-.26,3.69,3.69,0,0,0-.56-.19,2.78,2.78,0,0,0-.57-.07,2.52,2.52,0,0,0-.73.1,1.4,1.4,0,0,0-.47.26.87.87,0,0,0-.26.35.88.88,0,0,0-.09.38.85.85,0,0,0,.12.46,1.14,1.14,0,0,0,.31.31,1.83,1.83,0,0,0,.44.23l.51.19.65.22a7,7,0,0,1,.86.33,3.79,3.79,0,0,1,.69.4,2.1,2.1,0,0,1,.58.69A2,2,0,0,1,217.55,337.12Z" fill="#0b0c0c"/><path d="M220.46,335.75a3.5,3.5,0,0,0,.22,1,2.67,2.67,0,0,0,.52.82,2.29,2.29,0,0,0,.76.54,2.38,2.38,0,0,0,1,.19,2.87,2.87,0,0,0,1.17-.22,4.6,4.6,0,0,0,.93-.56l.67.95a4.88,4.88,0,0,1-1.25.7,4.19,4.19,0,0,1-1.58.28,3.79,3.79,0,0,1-1.57-.31,3.35,3.35,0,0,1-1.2-.86,3.62,3.62,0,0,1-.76-1.31,4.94,4.94,0,0,1-.27-1.66,5.28,5.28,0,0,1,.26-1.68,4.09,4.09,0,0,1,.74-1.31,3.44,3.44,0,0,1,1.14-.86,3.6,3.6,0,0,1,1.48-.31,3.29,3.29,0,0,1,1.42.31,3.22,3.22,0,0,1,1.08.86,4,4,0,0,1,.68,1.31,5.5,5.5,0,0,1,.24,1.66v.42Zm2.19-3.41a2,2,0,0,0-.89.2,2.12,2.12,0,0,0-.67.52,2.53,2.53,0,0,0-.43.75,3,3,0,0,0-.19.88h4.23a3.26,3.26,0,0,0-.16-.88,2.26,2.26,0,0,0-.41-.75,1.87,1.87,0,0,0-.63-.52A1.81,1.81,0,0,0,222.65,332.34Z" fill="#0b0c0c"/><path d="M232,332.52h-.21a3.79,3.79,0,0,0-1,.12,2,2,0,0,0-.81.42,2,2,0,0,0-.57.83,3.68,3.68,0,0,0-.21,1.35v4.09H228v-8h1.31v1.27a1.89,1.89,0,0,1,.4-.62,2.18,2.18,0,0,1,.57-.44,2.54,2.54,0,0,1,.68-.27,3.55,3.55,0,0,1,.73-.08H232Z" fill="#0b0c0c"/><path d="M235.28,339.33l-2.53-8h1.49l1.91,6.77,1.91-6.77h1.49l-2.53,8Z" fill="#0b0c0c"/><path d="M240.89,329a.85.85,0,0,1,.08-.35,1.12,1.12,0,0,1,.19-.29.81.81,0,0,1,.29-.19.86.86,0,0,1,.36-.08.85.85,0,0,1,.35.08.91.91,0,0,1,.29.19,1.12,1.12,0,0,1,.19.29.84.84,0,0,1,.07.35.86.86,0,0,1-.07.36,1,1,0,0,1-.19.29,1.12,1.12,0,0,1-.29.19.85.85,0,0,1-.35.08.86.86,0,0,1-.36-.08.85.85,0,0,1-.48-.48A.86.86,0,0,1,240.89,329Zm1.56,10.29h-1.31v-8h1.31Z" fill="#0b0c0c"/><path d="M245.72,335.38a4.24,4.24,0,0,0,.15,1.14,3,3,0,0,0,.44.94,2.11,2.11,0,0,0,.72.64,2.07,2.07,0,0,0,1,.24,2.17,2.17,0,0,0,.69-.1,2,2,0,0,0,.57-.29,2.61,2.61,0,0,0,.46-.42,3.74,3.74,0,0,0,.35-.53l1.09.62a3.36,3.36,0,0,1-.52.77,3.15,3.15,0,0,1-.72.59,3.73,3.73,0,0,1-.89.38,3.88,3.88,0,0,1-1,.13,3.5,3.5,0,0,1-1.5-.31,3.29,3.29,0,0,1-1.16-.86,3.91,3.91,0,0,1-.75-1.31,4.9,4.9,0,0,1-.27-1.66,5,5,0,0,1,.27-1.68,4.11,4.11,0,0,1,.75-1.31,3.41,3.41,0,0,1,1.16-.86,3.66,3.66,0,0,1,1.5-.31,3.88,3.88,0,0,1,1,.14,3.34,3.34,0,0,1,.89.37,3.15,3.15,0,0,1,.72.59,3.36,3.36,0,0,1,.52.77l-1.09.63a3.24,3.24,0,0,0-.35-.53,2.33,2.33,0,0,0-.46-.43,2,2,0,0,0-.57-.28,2.17,2.17,0,0,0-.69-.11,2.07,2.07,0,0,0-1,.24,2.11,2.11,0,0,0-.72.64,3,3,0,0,0-.44.94,4.24,4.24,0,0,0-.15,1.14Z" fill="#0b0c0c"/><path d="M253.84,335.75a3.51,3.51,0,0,0,.23,1,2.47,2.47,0,0,0,.51.82,2.29,2.29,0,0,0,.76.54,2.41,2.41,0,0,0,1,.19,2.81,2.81,0,0,0,1.17-.22,4.34,4.34,0,0,0,.93-.56l.67.95a4.88,4.88,0,0,1-1.25.7,4.19,4.19,0,0,1-1.58.28,3.79,3.79,0,0,1-1.57-.31,3.35,3.35,0,0,1-1.2-.86,3.77,3.77,0,0,1-.76-1.31,4.94,4.94,0,0,1-.27-1.66,5,5,0,0,1,.27-1.68,4.07,4.07,0,0,1,.73-1.31,3.38,3.38,0,0,1,1.15-.86,3.52,3.52,0,0,1,1.47-.31,3.25,3.25,0,0,1,1.42.31,3,3,0,0,1,1.08.86,4,4,0,0,1,.69,1.31,5.84,5.84,0,0,1,.23,1.66v.42Zm2.2-3.41a2,2,0,0,0-1.56.72,2.55,2.55,0,0,0-.44.75,2.71,2.71,0,0,0-.18.88h4.22a2.91,2.91,0,0,0-.16-.88,2.24,2.24,0,0,0-.4-.75,2,2,0,0,0-.64-.52A1.8,1.8,0,0,0,256,332.34Z" fill="#0b0c0c"/><path d="M318.86,338.29a3.52,3.52,0,0,0,1.08-.15,2.82,2.82,0,0,0,1.41-1,3.46,3.46,0,0,0,.39-.7,4.89,4.89,0,0,0,.21-.72A4.36,4.36,0,0,0,322,335v-.46h-3.14v-1.16h4.36v5.92H322v-1.5a3.59,3.59,0,0,1-.66.78,3.27,3.27,0,0,1-.78.51,3.17,3.17,0,0,1-.87.28,4.7,4.7,0,0,1-.92.09,4.44,4.44,0,0,1-2-.45,4.35,4.35,0,0,1-1.51-1.21,5.5,5.5,0,0,1-.93-1.82,7.86,7.86,0,0,1-.32-2.26,7.23,7.23,0,0,1,.35-2.26,5.43,5.43,0,0,1,1-1.82A4.6,4.6,0,0,1,319,328a5.27,5.27,0,0,1,1.33.17,5,5,0,0,1,1.16.47,4.57,4.57,0,0,1,.95.74,4.3,4.3,0,0,1,.71.94l-1.16.61a3.58,3.58,0,0,0-.49-.71,2.64,2.64,0,0,0-.65-.54,2.9,2.9,0,0,0-.82-.35,3.51,3.51,0,0,0-1-.13,3.16,3.16,0,0,0-1.54.37,3.44,3.44,0,0,0-1.12,1,4.39,4.39,0,0,0-.67,1.43,6.23,6.23,0,0,0-.23,1.67v.2a6.59,6.59,0,0,0,.21,1.67,4.48,4.48,0,0,0,.63,1.42,3.08,3.08,0,0,0,1.08,1A3,3,0,0,0,318.86,338.29Z" fill="#0b0c0c"/><path d="M325.22,333.75a7.23,7.23,0,0,1,.34-2.26,5.56,5.56,0,0,1,1-1.82,4.61,4.61,0,0,1,1.54-1.23,4.5,4.5,0,0,1,2-.45,4.56,4.56,0,0,1,2,.45,4.61,4.61,0,0,1,1.54,1.23,5.4,5.4,0,0,1,1,1.82,7.68,7.68,0,0,1,0,4.52,5.59,5.59,0,0,1-1,1.82,4.55,4.55,0,0,1-3.58,1.66,4.5,4.5,0,0,1-2-.45,4.55,4.55,0,0,1-1.54-1.21,5.77,5.77,0,0,1-1-1.82A7.23,7.23,0,0,1,325.22,333.75Zm8.33-.11a7,7,0,0,0-.19-1.67,4.42,4.42,0,0,0-.63-1.43,3.14,3.14,0,0,0-1.07-1,3.43,3.43,0,0,0-3.1,0,3.14,3.14,0,0,0-1.07,1,4.4,4.4,0,0,0-.62,1.43,7,7,0,0,0-.2,1.67v.21a7.07,7.07,0,0,0,.2,1.67,4.26,4.26,0,0,0,.62,1.42,3.14,3.14,0,0,0,1.07,1,3.43,3.43,0,0,0,3.1,0,3.14,3.14,0,0,0,1.07-1,4.27,4.27,0,0,0,.63-1.42,7.07,7.07,0,0,0,.19-1.67Z" fill="#0b0c0c"/><path d="M343.41,328.13h1.46l-3.48,11.2h-2l-3.5-11.2h1.51l2.95,10h.13Z" fill="#0b0c0c"/><path d="M345.48,338.58a.84.84,0,0,1,.07-.35,1,1,0,0,1,.2-.29,1,1,0,0,1,.28-.2.84.84,0,0,1,.35-.07.86.86,0,0,1,.36.07,1,1,0,0,1,.29.2,1,1,0,0,1,.19.29.85.85,0,0,1,.08.35.86.86,0,0,1-.08.36,1.07,1.07,0,0,1-.19.28,1,1,0,0,1-.29.2.94.94,0,0,1-.71,0,1,1,0,0,1-.28-.2,1.1,1.1,0,0,1-.2-.28A.86.86,0,0,1,345.48,338.58Z" fill="#0b0c0c"/><path d="M354.05,338.29a3.14,3.14,0,0,0,1.06-.17,2.63,2.63,0,0,0,.89-.54,2.9,2.9,0,0,0,.62-.94,3.67,3.67,0,0,0,.23-1.35v-7.16h1.35v7.34a4.25,4.25,0,0,1-.32,1.67,3.8,3.8,0,0,1-2.19,2.07,4.88,4.88,0,0,1-3.26,0,3.8,3.8,0,0,1-2.19-2.07,4.25,4.25,0,0,1-.32-1.67v-7.34h1.36v7.16a3.67,3.67,0,0,0,.23,1.35,2.88,2.88,0,0,0,.61.94,2.63,2.63,0,0,0,.89.54A3.11,3.11,0,0,0,354.05,338.29Z" fill="#0b0c0c"/><path d="M361.16,328.13h1.37v6l4.85-6h1.67l-3.66,4.42,4,6.78h-1.61l-3.34-5.77-1.94,2.4v3.37h-1.37Z" fill="#0b0c0c"/><path d="M380,328.13h1.47L378,339.33h-2l-3.5-11.2H374l2.95,10h.13Z" fill="#0b0c0c"/><path d="M383.08,335.75a3.5,3.5,0,0,0,.22,1,2.67,2.67,0,0,0,.52.82,2.29,2.29,0,0,0,.76.54,2.41,2.41,0,0,0,1,.19,2.87,2.87,0,0,0,1.17-.22,4.34,4.34,0,0,0,.93-.56l.67.95a4.88,4.88,0,0,1-1.25.7,4.19,4.19,0,0,1-1.58.28,3.79,3.79,0,0,1-1.57-.31,3.35,3.35,0,0,1-1.2-.86A3.77,3.77,0,0,1,382,337a4.94,4.94,0,0,1-.27-1.66,5.28,5.28,0,0,1,.26-1.68,4.09,4.09,0,0,1,.74-1.31,3.44,3.44,0,0,1,1.14-.86,3.6,3.6,0,0,1,1.48-.31,3.25,3.25,0,0,1,1.42.31,3.22,3.22,0,0,1,1.08.86,4,4,0,0,1,.68,1.31,5.5,5.5,0,0,1,.24,1.66v.42Zm2.19-3.41a2,2,0,0,0-.89.2,2.12,2.12,0,0,0-.67.52,2.53,2.53,0,0,0-.43.75,3,3,0,0,0-.19.88h4.23a2.91,2.91,0,0,0-.16-.88,2.26,2.26,0,0,0-.41-.75,1.87,1.87,0,0,0-.63-.52A1.81,1.81,0,0,0,385.27,332.34Z" fill="#0b0c0c"/><path d="M394.65,332.52h-.21a3.85,3.85,0,0,0-1,.12,2,2,0,0,0-.81.42,2,2,0,0,0-.57.83,3.68,3.68,0,0,0-.21,1.35v4.09h-1.31v-8h1.31v1.27a1.89,1.89,0,0,1,.4-.62,2.18,2.18,0,0,1,.57-.44,2.68,2.68,0,0,1,.68-.27,3.65,3.65,0,0,1,.74-.08h.38Z" fill="#0b0c0c"/><path d="M396,329a.84.84,0,0,1,.07-.35,1.12,1.12,0,0,1,.19-.29.81.81,0,0,1,.29-.19.9.9,0,0,1,.36-.08.85.85,0,0,1,.35.08.81.81,0,0,1,.29.19,1.12,1.12,0,0,1,.19.29.85.85,0,0,1,.08.35.86.86,0,0,1-.08.36.85.85,0,0,1-.48.48.85.85,0,0,1-.35.08.9.9,0,0,1-.36-.08.85.85,0,0,1-.48-.48A.86.86,0,0,1,396,329Zm1.55,10.29h-1.31v-8h1.31Z" fill="#0b0c0c"/><path d="M401.77,331.35h1.58v1.16h-1.58v6.82h-1.32v-6.82h-1.33v-1.16h1.33v-1.48a2.09,2.09,0,0,1,.17-.88,1.54,1.54,0,0,1,.45-.58,1.8,1.8,0,0,1,.7-.32,3.49,3.49,0,0,1,.88-.1,6,6,0,0,1,.8,0l.48.07-.1,1.12-.27,0-.31,0-.31,0h-.24a1.06,1.06,0,0,0-.47.09.67.67,0,0,0-.28.21.81.81,0,0,0-.15.31,2,2,0,0,0,0,.36Z" fill="#0b0c0c"/><path d="M404.12,331.35h1.48l2,6.59,1.88-6.59h1.46l-2.9,9.19a2.23,2.23,0,0,1-.35.69,1.77,1.77,0,0,1-.48.43,2,2,0,0,1-.59.22,4,4,0,0,1-.7.06l-.68,0-.74-.1.19-1.15.34.06.34,0h.38a1,1,0,0,0,.67-.19,1.08,1.08,0,0,0,.34-.61l.07-.36Z" fill="#0b0c0c"/><path d="M52.61,338.29a3,3,0,0,0,1-.17,2.45,2.45,0,0,0,.89-.54,2.77,2.77,0,0,0,.63-.94,3.67,3.67,0,0,0,.23-1.35v-7.16h1.34v7.34a4.08,4.08,0,0,1-.32,1.67,3.74,3.74,0,0,1-.87,1.26,3.91,3.91,0,0,1-1.31.81,4.63,4.63,0,0,1-1.64.28,4.56,4.56,0,0,1-1.62-.28,3.91,3.91,0,0,1-1.31-.81,3.76,3.76,0,0,1-.88-1.26,4.25,4.25,0,0,1-.32-1.67v-7.34h1.36v7.16a3.67,3.67,0,0,0,.23,1.35,2.73,2.73,0,0,0,.61.94,2.53,2.53,0,0,0,.89.54A3.07,3.07,0,0,0,52.61,338.29Z" fill="#0b0c0c"/><path d="M64.48,337.12a2,2,0,0,1-.25,1,2.3,2.3,0,0,1-.65.74,2.7,2.7,0,0,1-.93.46,3.58,3.58,0,0,1-1.08.16,4.81,4.81,0,0,1-1.69-.3,4.51,4.51,0,0,1-1.43-.86l.72-.93c.12.11.27.22.43.34a4.21,4.21,0,0,0,.55.33,3.46,3.46,0,0,0,.66.25,2.55,2.55,0,0,0,.74.1,2.43,2.43,0,0,0,.61-.08,1.92,1.92,0,0,0,.52-.24,1.26,1.26,0,0,0,.34-.39,1.07,1.07,0,0,0,0-1,1.09,1.09,0,0,0-.38-.36,2.26,2.26,0,0,0-.54-.26l-.66-.22-.5-.16c-.28-.1-.55-.21-.81-.32a2.74,2.74,0,0,1-.69-.45,2,2,0,0,1-.48-.62,1.89,1.89,0,0,1-.17-.86,2,2,0,0,1,.17-.81,2.1,2.1,0,0,1,.52-.72,2.94,2.94,0,0,1,.91-.52,3.8,3.8,0,0,1,1.29-.2,4,4,0,0,1,1.52.28,4.2,4.2,0,0,1,1.18.68l-.69.94a2.64,2.64,0,0,0-.4-.31,3.4,3.4,0,0,0-.5-.26,3.69,3.69,0,0,0-.56-.19,2.78,2.78,0,0,0-.57-.07,2.52,2.52,0,0,0-.73.1,1.4,1.4,0,0,0-.47.26.87.87,0,0,0-.26.35.88.88,0,0,0-.09.38.85.85,0,0,0,.12.46,1.14,1.14,0,0,0,.31.31,1.83,1.83,0,0,0,.44.23l.51.19.65.22a7,7,0,0,1,.86.33,3.79,3.79,0,0,1,.69.4,2.23,2.23,0,0,1,.58.69A2,2,0,0,1,64.48,337.12Z" fill="#0b0c0c"/><path d="M67.39,335.75a3.5,3.5,0,0,0,.22,1,2.84,2.84,0,0,0,.51.82,2.44,2.44,0,0,0,.77.54,2.38,2.38,0,0,0,1,.19,2.87,2.87,0,0,0,1.17-.22,4.27,4.27,0,0,0,.92-.56l.68.95a4.88,4.88,0,0,1-1.25.7,4.19,4.19,0,0,1-1.58.28,3.79,3.79,0,0,1-1.57-.31,3.35,3.35,0,0,1-1.2-.86,3.62,3.62,0,0,1-.76-1.31,4.94,4.94,0,0,1-.27-1.66,5.28,5.28,0,0,1,.26-1.68,4.09,4.09,0,0,1,.74-1.31,3.44,3.44,0,0,1,1.14-.86,3.56,3.56,0,0,1,1.48-.31,3.29,3.29,0,0,1,1.42.31,3.22,3.22,0,0,1,1.08.86,4,4,0,0,1,.68,1.31,5.5,5.5,0,0,1,.24,1.66v.42Zm2.19-3.41a2,2,0,0,0-.89.2,2.12,2.12,0,0,0-.67.52,2.53,2.53,0,0,0-.43.75,3,3,0,0,0-.19.88h4.23a3.26,3.26,0,0,0-.16-.88,2.26,2.26,0,0,0-.41-.75,1.87,1.87,0,0,0-.63-.52A1.81,1.81,0,0,0,69.58,332.34Z" fill="#0b0c0c"/><path d="M79,332.52h-.21a3.79,3.79,0,0,0-1,.12,2.07,2.07,0,0,0-.82.42,2.13,2.13,0,0,0-.56.83,3.68,3.68,0,0,0-.21,1.35v4.09H74.88v-8h1.31v1.27a1.89,1.89,0,0,1,.4-.62,2.18,2.18,0,0,1,.57-.44,2.54,2.54,0,0,1,.68-.27,3.55,3.55,0,0,1,.73-.08H79Z" fill="#0b0c0c"/></svg>