<?xml version="1.0" encoding="utf-8"?>
<!-- Generator: Adobe Illustrator 24.0.1, SVG Export Plug-In . SVG Version: 6.00 Build 0)  -->
<svg version="1.1" id="Layer_1" xmlns="http://www.w3.org/2000/svg" xmlns:xlink="http://www.w3.org/1999/xlink" x="0px" y="0px"
	 viewBox="0 0 960 535" style="enable-background:new 0 0 960 535;" xml:space="preserve">
<style type="text/css">
	.st0{fill:#FFFFFF;}
	.st1{fill:none;stroke:#000000;stroke-miterlimit:10;}
	.st2{font-family:'GDSTransportWebsite-Bold';}
	.st3{font-size:17.9892px;}
	.st4{fill:#DADADA;}
	.st5{fill:#0B0B0B;}
	.st6{fill:#DEE0E2;}
	.st7{font-size:32px;}
	.st8{font-family:'GDSTransportWebsite';}
	.st9{fill-rule:evenodd;clip-rule:evenodd;fill:#FFFFFF;}
	.st10{fill:#246FB1;}
	.st11{font-size:22.5662px;}
	.st12{fill:#0F703F;}
	.st13{fill:none;stroke:#C9C9C9;stroke-miterlimit:10;}
	.st14{fill:none;stroke:#000000;stroke-width:3;stroke-miterlimit:10;}
	.st15{fill:#CCCCCC;}
</style>
<g>
	<line class="st0" x1="233.7" y1="196.4" x2="564.4" y2="196.4"/>
	<g>
		<line class="st1" x1="233.7" y1="196.4" x2="555.3" y2="196.4"/>
		<g>
			<path d="M564.4,196.4c-4.3,1.6-9.5,4.3-12.8,7.1l2.6-7.1l-2.6-7.1C554.8,192.1,560.1,194.8,564.4,196.4z"/>
		</g>
	</g>
</g>
<line class="st1" x1="871.6" y1="196.4" x2="954" y2="196.4"/>
<path class="st1" d="M952.6,465H460.9c-14.2-0.6-13.2-12.2-13.2-12.2l0-242.4c-1.3-15.3-17.3-14-17.3-14"/>
<text transform="matrix(1 0 0 1 486.7886 184.439)" class="st2 st3">Yes</text>
<text transform="matrix(1 0 0 1 486.7891 449.1885)" class="st2 st3">No</text>
<g>
	<path class="st4" d="M0,40V10C0,4.5,4.5,0,10,0h940c5.5,0,10,4.5,10,10v30"/>
	<g transform="translate(16 11)">
		<circle class="st0" cx="9.4" cy="9" r="8.5"/>
		<circle class="st0" cx="33.1" cy="9" r="8.5"/>
		<circle class="st0" cx="56.9" cy="9" r="8.5"/>
	</g>
	<path class="st5" d="M1,40h958v65H1V40z"/>
	<g>
		<path class="st5" d="M0,0"/>
	</g>
	<path class="st4" d="M0,531h960v4H0V531z"/>
	<path class="st4" d="M4,535V40h952v495h4V36H0v499"/>
	<path class="st4" d="M0,0"/>
	<path class="st4" d="M0,0"/>
	<path class="st6" d="M0,0 M0,0 M0,0"/>
</g>
<text transform="matrix(1 0 0 1 120.383 82.422)"><tspan x="0" y="0" class="st0 st2 st7">Ministry of Justice   </tspan><tspan x="280.3" y="0" class="st0 st8 st7">Online</tspan></text>
<g>
	<g>
		<path class="st9" d="M65.7,66.1c1.3,0.6,2.9-0.1,3.4-1.4c0.6-1.3-0.1-2.9-1.5-3.4c-1.3-0.5-2.8,0.1-3.4,1.5
			C63.8,64.1,64.4,65.6,65.7,66.1L65.7,66.1z M59.8,69.6c1.3,0.6,2.9-0.1,3.4-1.4c0.6-1.3-0.1-2.9-1.5-3.4c-1.3-0.6-2.8,0.1-3.4,1.4
			C57.8,67.6,58.5,69,59.8,69.6L59.8,69.6z M58.1,76.2c1.3,0.6,2.9-0.1,3.4-1.4c0.6-1.3-0.1-2.9-1.5-3.4c-1.3-0.6-2.8,0.1-3.4,1.4
			C56.1,74.1,56.7,75.6,58.1,76.2L58.1,76.2z M72.3,68.2c1.3,0.6,2.9-0.1,3.4-1.4c0.6-1.3-0.1-2.9-1.5-3.4c-1.3-0.6-2.8,0.1-3.4,1.4
			C70.4,66.2,71,67.7,72.3,68.2L72.3,68.2z M96.3,66.1c-1.3,0.6-2.9-0.1-3.4-1.4c-0.6-1.3,0.1-2.9,1.4-3.4c1.3-0.5,2.9,0.1,3.4,1.5
			C98.2,64.1,97.6,65.6,96.3,66.1L96.3,66.1z M102.2,69.6c-1.3,0.6-2.9-0.1-3.4-1.4c-0.6-1.3,0.1-2.9,1.4-3.4
			c1.3-0.6,2.9,0.1,3.4,1.4C104.2,67.6,103.5,69,102.2,69.6L102.2,69.6z M104,76.2c-1.3,0.6-2.9-0.1-3.4-1.4
			c-0.6-1.3,0.1-2.9,1.5-3.4c1.3-0.6,2.9,0.1,3.4,1.4C105.9,74.1,105.3,75.6,104,76.2L104,76.2z M89.7,68.2
			c-1.3,0.6-2.9-0.1-3.4-1.4c-0.5-1.3,0.1-2.9,1.5-3.4c1.3-0.6,2.9,0.1,3.4,1.4C91.7,66.2,91,67.7,89.7,68.2L89.7,68.2z M82.4,61.5
			L82.4,61.5l3.3,1.7v-4.9l-3.3,1l0,0c-0.1-0.1-0.2-0.2-0.3-0.3l0,0l1.3-4.2H81h-2.4l1.3,4.2l0,0c-0.1,0.1-0.2,0.2-0.3,0.3l0,0
			l-3.3-1v4.9l3.3-1.7l0,0c0.1,0.1,0.2,0.3,0.3,0.3l-1.9,5.7c0,0,0,0,0,0l0,0l0,0c-0.1,0.3-0.1,0.6-0.1,0.9c0,1.5,1.2,2.8,2.6,3h0.1
			c0.1,0,0.3,0,0.4,0c0.1,0,0.3,0,0.4,0h0.1c1.5-0.2,2.6-1.5,2.6-3c0-0.3,0-0.6-0.1-0.9l0,0l0,0c0,0,0,0,0,0L82,61.8
			C82.2,61.8,82.3,61.6,82.4,61.5L82.4,61.5z M81,89.4c6.3,0,12.2,0.4,17.5,1.2c1.5-6.3,3.3-9.9,5.2-12.5l-3.6-1.3
			c0.4,1.8,0.4,2.7,0,3.8c-0.6-0.5-1.1-1.6-1.6-3.2l-1.7,5.7c1-0.7,1.9-1.2,2.8-1.2c-1.6,3.5-3.7,4.4-5.1,4.2
			c-1.6-0.3-2.3-1.7-2.1-2.9c0.4-1.7,2.1-2.2,3-0.2c1.6-3.2-1.1-4.2-2.8-3.3c2.6-2.7,2.9-5,0.8-7.9c-3,2.3-3,4.6-1.7,7.7
			c-1.7-2-4.5-0.9-3.5,2.3c1.3-1.9,2.9-0.7,2.7,1.2c-0.2,1.6-2.4,2.9-5,2.7c-3.8-0.3-4.1-3-4.2-5.1c0.9-0.2,2.6,0.7,4.1,2.7l0.5-6.1
			c-1.5,1.6-3,2-4.6,2c0.5-1.6,3-4.3,3-4.3h-3.5l0,0l0,0h-4.1c0,0,2.4,2.7,2.9,4.3c-1.6,0-3-0.4-4.6-2l0.5,6.1
			c1.5-2,3.2-2.9,4.1-2.7c-0.1,2.2-0.3,4.8-4.1,5.1c-2.7,0.2-4.8-1.1-5-2.7c-0.3-1.9,1.4-3.1,2.6-1.2c1-3.2-1.7-4.3-3.5-2.3
			c1.4-3.2,1.3-5.5-1.7-7.7c-2.2,2.8-1.9,5.2,0.8,7.9c-1.7-1-4.4,0-2.9,3.3c0.9-2,2.6-1.6,3,0.2c0.3,1.2-0.5,2.6-2.1,2.9
			c-1.3,0.3-3.4-0.7-5-4.2c0.9,0,1.7,0.5,2.8,1.2l-1.7-5.7c-0.4,1.6-1,2.7-1.6,3.2c-0.4-1.1-0.3-2,0-3.8L58,78.2
			c1.9,2.6,3.7,6.2,5.2,12.5C68.8,89.9,74.7,89.4,81,89.4L81,89.4z"/>
	</g>
</g>
<g>
	<path class="st5" d="M564.4,169.5h307.2v26.8H564.4V169.5z"/>
	<path class="st10" d="M564.4,196.4h307.2v6H564.4V196.4z"/>
</g>
<text transform="matrix(1 0 0 1 586.5361 242.75)"><tspan x="0" y="0" class="st2 st11">What is your National</tspan><tspan x="0" y="21.1" class="st2 st11">Insurance number?</tspan></text>
<path class="st5" d="M684.7,285v15.3h-95.2V285H684.7z M687.7,282H586.5v21.4h101.2V282z"/>
<rect x="586.5" y="315.2" class="st12" width="50.6" height="20.1"/>
<rect x="563.7" y="169.5" class="st13" width="308" height="224.1"/>
<g>
	<path class="st5" d="M83.2,169.5h308v26.8h-308V169.5z"/>
	<path class="st10" d="M83.2,196.4h308v6h-308V196.4z"/>
</g>
<text transform="matrix(1 0 0 1 106.0669 242.75)"><tspan x="0" y="0" class="st2 st11">Do you have a National</tspan><tspan x="0" y="21.1" class="st2 st11">Insurance number?</tspan></text>
<rect x="106.1" y="348.2" class="st12" width="50.6" height="20.1"/>
<rect x="83.2" y="169.5" class="st13" width="308" height="224.1"/>
<circle class="st14" cx="116.7" cy="292.7" r="10.7"/>
<circle class="st14" cx="116.7" cy="321.7" r="10.7"/>
<rect x="138.3" y="286" class="st15" width="46.4" height="13.4"/>
<rect x="138.3" y="315" class="st15" width="26.9" height="13.4"/>
</svg>
