<?xml version="1.0" encoding="utf-8"?>
<!-- Generator: Adobe Illustrator 24.0.1, SVG Export Plug-In . SVG Version: 6.00 Build 0)  -->
<svg version="1.1" id="Layer_1" xmlns="http://www.w3.org/2000/svg" xmlns:xlink="http://www.w3.org/1999/xlink" x="0px" y="0px"
	 viewBox="0 0 960 381.1" style="enable-background:new 0 0 960 381.1;" xml:space="preserve">
<style type="text/css">
	.st0{fill-rule:evenodd;clip-rule:evenodd;fill:#FFFFFF;}
	.st1{fill:#1E1E1E;}
	.st2{fill:#EDEDED;}
	.st3{fill-rule:evenodd;clip-rule:evenodd;fill:#2B8CC4;}
	.st4{fill:#0A0A0A;}
	.st5{fill-rule:evenodd;clip-rule:evenodd;fill:#878787;}
	.st6{fill:#B2B2B2;}
	.st7{fill:#878787;}
	.st8{fill:#FFFFFF;}
	.st9{fill:#009347;stroke:#FFFFFF;stroke-width:0.586;stroke-miterlimit:10;}
	.st10{fill:#D2D2D2;}
	.st11{fill:#DADADA;}
	.st12{fill:#0B0B0B;}
	.st13{fill:#FFFFFF;stroke:#A7A7A8;stroke-width:0.711;stroke-miterlimit:10;}
	.st14{fill:#CCCCCC;}
	.st15{fill:#246FB1;}
</style>
<g id="Layer_2">
	<g>
		<rect x="399.4" y="322.4" class="st0" width="157.1" height="46.1"/>
		<path class="st1" d="M232.1,355.6V24.7c0-13.2,10.9-24,24.1-24.1h450c13.2,0,24,10.9,24.1,24.1v330.9"/>
		<path class="st2" d="M730.5,356.1h-1.4V25.2c0-12.8-10.5-23.4-23.4-23.5h-450c-12.9,0-23.5,10.6-23.5,23.5v330.9h-1.4V25.2
			c0-13.6,11.2-24.7,24.8-24.7c0,0,0.1,0,0.1,0h450c13.6,0,24.8,11.2,24.8,24.8V356.1z"/>
		<rect x="268.4" y="37.9" class="st3" width="424.6" height="268.2"/>
		<path class="st4" d="M693.6,306.8H267.7V37.2h425.9V306.8z M269.1,305.4h423.2V38.7H269.1V305.4z"/>
		<rect x="425.3" y="342.3" class="st5" width="111.2" height="19.3"/>
		<path class="st6" d="M526.1,354.2h-90.8c-5.4,0-9.9-5.9-10.3-11.3h-267v29.7l73.5,8.5h498.3l73.5-8.5v-29.7H536.4
			C536.1,348.7,531.6,354.2,526.1,354.2z"/>
		<path class="st7" d="M158.1,372.6l73.6,8.5h498.2l73.6-8.5C803.4,372.6,158.1,372.6,158.1,372.6z"/>
		<path class="st2" d="M526.1,355h-90.8c-5.9,0-10.3-5.9-10.9-11.3H158.1v-1.4h267.7v0.6c0.3,5,4.5,10.7,9.6,10.7h90.8
			c5.4,0,9.3-5.5,9.6-10.7v-0.6h267.7v1.4H537C536.4,349.2,532,355,526.1,355L526.1,355z"/>
	</g>
</g>
<g id="Layer_2_2_">
	<path class="st8" d="M310.2,93.9h335.9v198.8H310.2V93.9z"/>
	<path class="st9" d="M351.4,256.3h125.8v19.5H351.4V256.3z"/>
	<path class="st10" d="M351.9,151.4h196.2v9.8H351.9V151.4z M351.9,170.9h196.2v9.8H351.9V170.9z M351.9,190.4h196.2v9.8H351.9
		V190.4z M351.9,209.9h196.2v9.8H351.9V209.9z M351.9,229.4h139.2v9.8H351.9V229.4z"/>
	<path class="st11" d="M309.7,69.3V54.7c0-2.7,2.2-4.9,4.9-4.9h326.6c2.7,0,4.9,2.2,4.9,4.9v14.6"/>
	<circle class="st8" cx="322.1" cy="59.5" r="4.1"/>
	<circle class="st8" cx="333.6" cy="59.5" r="4.1"/>
	<circle class="st8" cx="345.2" cy="59.5" r="4.1"/>
	<path class="st12" d="M310.2,100.2h335.4v31.7H310.2V100.2z"/>
	<path class="st11" d="M311.7,294.6V100.2h332.5v194.4h1.9V67.4H309.7v227.2"/>
	<path class="st13" d="M317.5,69.1h319.9v28.3H317.5V69.1z"/>
	<path class="st11" d="M309.7,292.6h336.4v1.9H309.7V292.6z"/>
</g>
<g id="Layer_4_3_">
	<rect x="829.7" y="129.3" class="st10" width="109.7" height="7.3"/>
	<rect x="829.7" y="144.2" class="st10" width="109.7" height="7.3"/>
	<rect x="829.7" y="158.7" class="st10" width="55.4" height="7.3"/>
	<path class="st11" d="M808.9,65.3v209.5v3h3h144.9h3v-3V65.3H808.9z M811.9,274.8V68.7h144.9v206.2H811.9z"/>
	<rect x="829.7" y="89.4" class="st14" width="78.8" height="20.2"/>
	<path class="st14" d="M903.8,201.5v7.9h-72.4v-7.9H903.8z M905.3,200h-75.5v11.2h75.5V200z"/>
	<rect x="829.7" y="186.1" class="st10" width="94.8" height="7.3"/>
	<path class="st14" d="M903.8,239.1v7.9h-72.4v-7.9L903.8,239.1L903.8,239.1z M905.3,237.6h-75.5v11.2h75.5V237.6z"/>
	<rect x="829.7" y="223.8" class="st10" width="64.7" height="7.3"/>
</g>
<g id="Layer_5_1_">
	<g>
		<path class="st15" d="M159.4,169.6c1.6,0,3,1.3,3,3c0,1.6-1.3,3-3,3c-1.6,0-3-1.4-3-3l0,0C156.4,171,157.6,169.6,159.4,169.6
			L159.4,169.6L159.4,169.6z M170.4,169.6c1.6,0,3,1.3,3,3c0,1.6-1.4,3-3,3s-3-1.4-3-3S168.8,169.6,170.4,169.6z M181.4,169.6
			c1.6,0,3,1.3,3,3c0,1.6-1.4,3-3,3s-3-1.4-3-3C178.6,171,179.8,169.6,181.4,169.6z M192.6,169.6c1.6,0,3,1.3,3,3c0,1.6-1.3,3-3,3
			c-1.6,0-3-1.4-3-3S190.9,169.6,192.6,169.6z M203.6,169.6c1.6,0,3,1.3,3,3c0,1.6-1.4,3-3,3s-2.9-1.4-2.9-3
			S202.1,169.7,203.6,169.6z"/>
		<path class="st15" d="M204.6,192.1c-0.8,0-1.6-0.4-2.2-1c-0.5-0.6-0.8-1.3-0.8-2.1c0-0.9,0.4-1.7,1-2.3l15.3-14l-15.3-14
			c-0.6-0.6-1-1.4-1-2.2c0-1.6,1.3-3,3-3c0.7,0,1.5,0.3,2,0.8l17.7,16.2c0.6,0.6,1,1.4,1,2.2s-0.4,1.6-1,2.2l-17.7,16.2
			C206.1,191.8,205.3,192.1,204.6,192.1L204.6,192.1z"/>
	</g>
	<g>
		<path class="st15" d="M738.8,169.4c1.6,0,2.9,1.3,2.9,2.9c0,1.6-1.3,2.9-2.9,2.9c-1.6,0-2.9-1.3-2.9-2.9l0,0
			C735.9,170.7,737.2,169.4,738.8,169.4L738.8,169.4L738.8,169.4z M749.7,169.4c1.6,0,2.9,1.3,2.9,2.9c0,1.6-1.3,2.9-2.9,2.9
			c-1.6,0-2.9-1.3-2.9-2.9S748.1,169.4,749.7,169.4z M760.5,169.4c1.6,0,2.9,1.3,2.9,2.9c0,1.6-1.3,2.9-2.9,2.9
			c-1.6,0-2.9-1.3-2.9-2.9S758.9,169.4,760.5,169.4z M771.4,169.4c1.6,0,2.9,1.3,2.9,2.9c0,1.6-1.3,2.9-2.9,2.9
			c-1.6,0-2.9-1.3-2.9-2.9S769.8,169.4,771.4,169.4z M782.3,169.4c1.6,0,2.9,1.3,2.9,2.9c0,1.6-1.3,2.9-2.9,2.9
			c-1.6,0-2.9-1.4-2.9-2.9C779.4,170.7,780.7,169.4,782.3,169.4z"/>
		<path class="st15" d="M783.2,191.4c-0.8,0-1.6-0.3-2.2-1c-0.5-0.5-0.8-1.3-0.8-2c0-0.9,0.4-1.7,1-2.2l15.1-13.7l-15.1-13.7
			c-0.6-0.6-1-1.3-1-2.2c0-1.6,1.3-2.9,2.9-2.9c0.7,0,1.4,0.3,2,0.8l17.4,15.9c0.6,0.6,1,1.3,1,2.2c0,0.8-0.3,1.6-1,2.2l-17.3,15.7
			C784.7,191.1,784,191.4,783.2,191.4L783.2,191.4z"/>
	</g>
</g>
<g id="Layer_4_2_">
	<rect x="21" y="129.8" class="st10" width="109.7" height="7.3"/>
	<rect x="21" y="144.7" class="st10" width="109.7" height="7.3"/>
	<rect x="21" y="159.2" class="st10" width="55.4" height="7.3"/>
	<path class="st11" d="M0.2,65.8v209.5v3h3H148h3v-3V65.8H0.2z M3.2,275.3V69.2H148v206.2H3.2z"/>
	<rect x="21" y="89.9" class="st14" width="78.8" height="20.2"/>
	<path class="st14" d="M95.1,202v7.9H22.6V202H95.1z M96.6,200.5H21v11.2h75.5V200.5z"/>
	<rect x="21" y="186.6" class="st10" width="94.8" height="7.3"/>
	<path class="st14" d="M95.1,239.6v7.9H22.6v-7.9L95.1,239.6L95.1,239.6z M96.6,238.1H21v11.2h75.5V238.1z"/>
	<rect x="21" y="224.3" class="st10" width="64.7" height="7.3"/>
</g>
</svg>
