<svg id="Layer_1" data-name="Layer 1" xmlns="http://www.w3.org/2000/svg" viewBox="0 0 300 232.9"><title>verify-product-image</title><path d="M21.43,65.31a1.24,1.24,0,0,1-.33,0,1.21,1.21,0,0,1-.31-.09A1.18,1.18,0,0,1,20.5,65a1.28,1.28,0,0,1-.26-.2,1.71,1.71,0,0,1-.21-.26,1.59,1.59,0,0,1-.15-.29,1.7,1.7,0,0,1-.1-.32,1.84,1.84,0,0,1,0-.33,1.72,1.72,0,0,1,.49-1.19,1.83,1.83,0,0,1,.26-.21,1.59,1.59,0,0,1,.29-.15,1.24,1.24,0,0,1,.31-.1,1.83,1.83,0,0,1,.66,0,1.12,1.12,0,0,1,.31.1,1.4,1.4,0,0,1,.3.15,1.73,1.73,0,0,1,.25.21,2.75,2.75,0,0,1,.22.26A2.64,2.64,0,0,1,23,63a3,3,0,0,1,.1.32,1.73,1.73,0,0,1,0,.32,1.84,1.84,0,0,1,0,.33,3,3,0,0,1-.1.32,2.64,2.64,0,0,1-.15.29,2.75,2.75,0,0,1-.22.26A1.69,1.69,0,0,1,21.43,65.31Z" transform="translate(-0.38 -0.06)" fill="#009fe3"/><path d="M19.75,57.37h0a1.68,1.68,0,0,1,1.68-1.68h0a1.69,1.69,0,0,1,1.69,1.68h0a1.69,1.69,0,0,1-1.69,1.69h0A1.68,1.68,0,0,1,19.75,57.37Zm0-6.25h0a1.69,1.69,0,0,1,1.68-1.69h0a1.69,1.69,0,0,1,1.69,1.69h0a1.69,1.69,0,0,1-1.69,1.68h0A1.68,1.68,0,0,1,19.75,51.12Zm0-6.25h0a1.69,1.69,0,0,1,1.68-1.69h0a1.69,1.69,0,0,1,1.69,1.69h0a1.69,1.69,0,0,1-1.69,1.68h0A1.68,1.68,0,0,1,19.75,44.87Zm0-6.26h0a1.68,1.68,0,0,1,1.68-1.68h0a1.69,1.69,0,0,1,1.69,1.68h0a1.69,1.69,0,0,1-1.69,1.69h0A1.69,1.69,0,0,1,19.75,38.61Zm0-6.25h0a1.69,1.69,0,0,1,1.68-1.69h0a1.69,1.69,0,0,1,1.69,1.69h0A1.69,1.69,0,0,1,21.43,34h0A1.68,1.68,0,0,1,19.75,32.36Z" transform="translate(-0.38 -0.06)" fill="#009fe3"/><path d="M21.43,27.8a1.84,1.84,0,0,1-.33,0,1.81,1.81,0,0,1-.31-.09,2.69,2.69,0,0,1-.29-.16,1.33,1.33,0,0,1-.26-.21,1.64,1.64,0,0,1-.21-.25,2.1,2.1,0,0,1-.15-.3,1.6,1.6,0,0,1-.1-.31,1.84,1.84,0,0,1,0-.33,1.69,1.69,0,0,1,.49-1.19,1.33,1.33,0,0,1,.26-.21,2.69,2.69,0,0,1,.29-.16,1.81,1.81,0,0,1,.31-.09,1.7,1.7,0,0,1,1.52.46,2.62,2.62,0,0,1,.22.25,2.1,2.1,0,0,1,.15.3,2.81,2.81,0,0,1,.1.31,1.84,1.84,0,0,1,0,.33,1.66,1.66,0,0,1-.5,1.19A1.69,1.69,0,0,1,21.43,27.8Z" transform="translate(-0.38 -0.06)" fill="#009fe3"/><path d="M85.6,26.12a1.69,1.69,0,0,1,1.69-1.68h0A1.69,1.69,0,0,1,89,26.12h0a1.69,1.69,0,0,1-1.69,1.68h0A1.69,1.69,0,0,1,85.6,26.12Zm-6.58,0a1.68,1.68,0,0,1,1.68-1.68h0a1.69,1.69,0,0,1,1.69,1.68h0A1.69,1.69,0,0,1,80.7,27.8h0A1.68,1.68,0,0,1,79,26.12Zm-6.59,0a1.69,1.69,0,0,1,1.69-1.68h0a1.68,1.68,0,0,1,1.68,1.68h0a1.68,1.68,0,0,1-1.68,1.68h0A1.69,1.69,0,0,1,72.43,26.12Zm-6.59,0a1.69,1.69,0,0,1,1.69-1.68h0a1.69,1.69,0,0,1,1.69,1.68h0a1.69,1.69,0,0,1-1.69,1.68h0A1.69,1.69,0,0,1,65.84,26.12Zm-6.58,0A1.68,1.68,0,0,1,61,24.44h0a1.68,1.68,0,0,1,1.68,1.68h0A1.68,1.68,0,0,1,61,27.8h0A1.68,1.68,0,0,1,59.26,26.12Zm-6.58,0a1.68,1.68,0,0,1,1.68-1.68h0a1.69,1.69,0,0,1,1.69,1.68h0a1.69,1.69,0,0,1-1.69,1.68h0A1.68,1.68,0,0,1,52.68,26.12Zm-6.59,0a1.68,1.68,0,0,1,1.68-1.68h0a1.68,1.68,0,0,1,1.69,1.68h0a1.68,1.68,0,0,1-1.69,1.68h0A1.68,1.68,0,0,1,46.09,26.12Zm-6.58,0a1.68,1.68,0,0,1,1.68-1.68h0a1.69,1.69,0,0,1,1.69,1.68h0a1.69,1.69,0,0,1-1.69,1.68h0A1.68,1.68,0,0,1,39.51,26.12Zm-6.59,0a1.68,1.68,0,0,1,1.68-1.68h0a1.69,1.69,0,0,1,1.69,1.68h0A1.69,1.69,0,0,1,34.6,27.8h0A1.68,1.68,0,0,1,32.92,26.12Zm-6.59,0A1.69,1.69,0,0,1,28,24.44h0a1.68,1.68,0,0,1,1.68,1.68h0A1.68,1.68,0,0,1,28,27.8h0A1.69,1.69,0,0,1,26.33,26.12Z" transform="translate(-0.38 -0.06)" fill="#009fe3"/><path d="M93.87,27.8a1.66,1.66,0,0,1-.32,0,1.68,1.68,0,0,1-.32-.09,2.69,2.69,0,0,1-.29-.16,1.71,1.71,0,0,1-.26-.21,1.69,1.69,0,0,1-.49-1.19,1.84,1.84,0,0,1,0-.33,1.12,1.12,0,0,1,.1-.31,1.4,1.4,0,0,1,.15-.3,1.64,1.64,0,0,1,.21-.25,1.33,1.33,0,0,1,.26-.21,2.69,2.69,0,0,1,.29-.16,1.68,1.68,0,0,1,.32-.09,1.43,1.43,0,0,1,.65,0,1.68,1.68,0,0,1,.32.09,2.69,2.69,0,0,1,.29.16,1.71,1.71,0,0,1,.26.21,2.43,2.43,0,0,1,.2.25,1.08,1.08,0,0,1,.16.3,1.6,1.6,0,0,1,.1.31,1.83,1.83,0,0,1,0,.66,1.6,1.6,0,0,1-.1.31,1.46,1.46,0,0,1-.16.3,2.43,2.43,0,0,1-.2.25,1.71,1.71,0,0,1-.26.21,2.69,2.69,0,0,1-.29.16,1.68,1.68,0,0,1-.32.09A1.76,1.76,0,0,1,93.87,27.8Z" transform="translate(-0.38 -0.06)" fill="#009fe3"/><path d="M279.54,65.31a1.15,1.15,0,0,1-.33,0,1.45,1.45,0,0,1-.61-.25,1.69,1.69,0,0,1-.25-.2,1.78,1.78,0,0,1-.22-.26,1.59,1.59,0,0,1-.15-.29,1.7,1.7,0,0,1-.1-.32,1.84,1.84,0,0,1,0-.33,1.73,1.73,0,0,1,0-.32A1.7,1.7,0,0,1,278,63a1.59,1.59,0,0,1,.15-.29,1.58,1.58,0,0,1,.47-.47,1.59,1.59,0,0,1,.29-.15,1.19,1.19,0,0,1,.32-.1,1.78,1.78,0,0,1,.65,0,1.19,1.19,0,0,1,.32.1,1.59,1.59,0,0,1,.29.15,1.58,1.58,0,0,1,.47.47,1.59,1.59,0,0,1,.15.29,1.7,1.7,0,0,1,.1.32,1.73,1.73,0,0,1,0,.32,1.84,1.84,0,0,1,0,.33,1.7,1.7,0,0,1-.1.32,1.59,1.59,0,0,1-.15.29,1.78,1.78,0,0,1-.22.26A1.68,1.68,0,0,1,279.54,65.31Z" transform="translate(-0.38 -0.06)" fill="#009fe3"/><path d="M277.85,57.37h0a1.69,1.69,0,0,1,1.69-1.68h0a1.68,1.68,0,0,1,1.68,1.68h0a1.69,1.69,0,0,1-1.68,1.69h0A1.69,1.69,0,0,1,277.85,57.37Zm0-6.25h0a1.69,1.69,0,0,1,1.69-1.68h0a1.68,1.68,0,0,1,1.68,1.68h0a1.68,1.68,0,0,1-1.68,1.68h0A1.69,1.69,0,0,1,277.85,51.12Zm0-6.25h0a1.69,1.69,0,0,1,1.69-1.69h0a1.69,1.69,0,0,1,1.68,1.69h0a1.68,1.68,0,0,1-1.68,1.68h0A1.69,1.69,0,0,1,277.85,44.87Zm0-6.26h0a1.69,1.69,0,0,1,1.69-1.68h0a1.68,1.68,0,0,1,1.68,1.68h0a1.69,1.69,0,0,1-1.68,1.69h0A1.69,1.69,0,0,1,277.85,38.61Zm0-6.25h0a1.69,1.69,0,0,1,1.69-1.69h0a1.69,1.69,0,0,1,1.68,1.69h0A1.68,1.68,0,0,1,279.54,34h0A1.69,1.69,0,0,1,277.85,32.36Z" transform="translate(-0.38 -0.06)" fill="#009fe3"/><path d="M279.54,27.8a1.81,1.81,0,0,1-.65-.12,2.69,2.69,0,0,1-.29-.16,1.27,1.27,0,0,1-.25-.21,1.71,1.71,0,0,1-.22-.25,2.1,2.1,0,0,1-.15-.3,1.6,1.6,0,0,1-.1-.31,1.83,1.83,0,0,1,0-.66,1.6,1.6,0,0,1,.1-.31,1.4,1.4,0,0,1,.15-.3,2.52,2.52,0,0,1,.21-.25,1.71,1.71,0,0,1,.26-.21,2.69,2.69,0,0,1,.29-.16,1.68,1.68,0,0,1,.32-.09,1.43,1.43,0,0,1,.65,0,1.68,1.68,0,0,1,.32.09,2.69,2.69,0,0,1,.29.16,1.71,1.71,0,0,1,.26.21,2.52,2.52,0,0,1,.21.25,1.4,1.4,0,0,1,.15.3,1.6,1.6,0,0,1,.1.31,1.83,1.83,0,0,1,0,.66,1.6,1.6,0,0,1-.1.31,2.1,2.1,0,0,1-.15.3,1.71,1.71,0,0,1-.22.25A1.68,1.68,0,0,1,279.54,27.8Z" transform="translate(-0.38 -0.06)" fill="#009fe3"/><path d="M271.06,26.12a1.69,1.69,0,0,1,1.68-1.69h0a1.69,1.69,0,0,1,1.69,1.69h0a1.68,1.68,0,0,1-1.69,1.68h0A1.68,1.68,0,0,1,271.06,26.12Zm-6.79,0A1.69,1.69,0,0,1,266,24.43h0a1.69,1.69,0,0,1,1.69,1.69h0A1.69,1.69,0,0,1,266,27.8h0A1.68,1.68,0,0,1,264.27,26.12Zm-6.79,0a1.69,1.69,0,0,1,1.68-1.69h0a1.69,1.69,0,0,1,1.69,1.69h0a1.69,1.69,0,0,1-1.69,1.68h0A1.68,1.68,0,0,1,257.48,26.12Zm-6.8,0a1.69,1.69,0,0,1,1.69-1.69h0a1.69,1.69,0,0,1,1.68,1.69h0a1.68,1.68,0,0,1-1.68,1.68h0A1.69,1.69,0,0,1,250.68,26.12Zm-6.79,0a1.69,1.69,0,0,1,1.69-1.69h0a1.69,1.69,0,0,1,1.68,1.69h0a1.68,1.68,0,0,1-1.68,1.68h0A1.69,1.69,0,0,1,243.89,26.12Zm-6.79,0a1.69,1.69,0,0,1,1.69-1.69h0a1.69,1.69,0,0,1,1.68,1.69h0a1.68,1.68,0,0,1-1.68,1.68h0A1.69,1.69,0,0,1,237.1,26.12Zm-6.79,0A1.69,1.69,0,0,1,232,24.43h0a1.69,1.69,0,0,1,1.68,1.69h0A1.68,1.68,0,0,1,232,27.8h0A1.69,1.69,0,0,1,230.31,26.12Zm-6.79,0a1.69,1.69,0,0,1,1.68-1.69h0a1.69,1.69,0,0,1,1.69,1.69h0a1.68,1.68,0,0,1-1.69,1.68h0A1.68,1.68,0,0,1,223.52,26.12Zm-6.79,0a1.69,1.69,0,0,1,1.68-1.69h0a1.69,1.69,0,0,1,1.69,1.69h0a1.69,1.69,0,0,1-1.69,1.68h0A1.68,1.68,0,0,1,216.73,26.12Zm-6.8,0a1.69,1.69,0,0,1,1.69-1.69h0a1.69,1.69,0,0,1,1.68,1.69h0a1.68,1.68,0,0,1-1.68,1.68h0A1.69,1.69,0,0,1,209.93,26.12Zm-6.79,0a1.69,1.69,0,0,1,1.69-1.69h0a1.69,1.69,0,0,1,1.68,1.69h0a1.68,1.68,0,0,1-1.68,1.68h0A1.69,1.69,0,0,1,203.14,26.12Z" transform="translate(-0.38 -0.06)" fill="#009fe3"/><path d="M198,27.8a1.84,1.84,0,0,1-.33,0,1.92,1.92,0,0,1-.32-.09,2.69,2.69,0,0,1-.29-.16,1.27,1.27,0,0,1-.25-.21,1.64,1.64,0,0,1-.21-.25,2.19,2.19,0,0,1-.16-.3,2.81,2.81,0,0,1-.1-.31,1.83,1.83,0,0,1,0-.66,2.81,2.81,0,0,1,.1-.31,1.43,1.43,0,0,1,.16-.3,1.64,1.64,0,0,1,.21-.25,1.7,1.7,0,0,1,1.52-.46,1.81,1.81,0,0,1,.31.09,2,2,0,0,1,.29.16,1.33,1.33,0,0,1,.26.21,1.69,1.69,0,0,1,.49,1.19,1.84,1.84,0,0,1,0,.33,1.6,1.6,0,0,1-.1.31,2.1,2.1,0,0,1-.15.3,1.64,1.64,0,0,1-.21.25A1.71,1.71,0,0,1,198,27.8Z" transform="translate(-0.38 -0.06)" fill="#009fe3"/><rect x="0.25" y="55.67" width="83.3" height="77.3" fill="#d3ecfb"/><rect x="0.5" y="56.15" width="82.34" height="13.51" fill="#0a0a0a"/><path d="M80.81,58.62v71.91H3.75V58.62H80.81m3.37-3.37H.38V133.9h83.8V55.25Z" transform="translate(-0.38 -0.06)" fill="#0a0a0a"/><rect x="216.69" y="55.67" width="82.82" height="77.3" fill="#d3ecfb"/><rect x="216.7" y="56.15" width="82.34" height="13.51" fill="#0a0a0a"/><path d="M297,58.62v71.91H220V58.62H297m3.37-3.37h-83.8V133.9h83.8V55.25Z" transform="translate(-0.38 -0.06)" fill="#0a0a0a"/><path d="M52,103.05c0-.32,0-1.15,0-1.51,0-5.23,5.34-7.05,5.34-9.86,0-1.47-1.18-2.34-2.77-2.34a6.9,6.9,0,0,0-5.11,2.5l-3.21-4A11.56,11.56,0,0,1,55.09,84c5.07,0,8.51,3.29,8.51,7.1A7.61,7.61,0,0,1,61,97l-1,.87c-1.35,1.23-2.54,2.42-2.54,4.48v.75Zm2.77,2.06A3.71,3.71,0,1,1,51,108.83,3.77,3.77,0,0,1,54.77,105.11Z" transform="translate(-0.38 -0.06)"/><path d="M29.38,98.79c-8.8,0-11.29,4.27-11.29,4.27v9.46H40.66v-9.46S38.18,98.8,29.38,98.79Z" transform="translate(-0.38 -0.06)" fill="#0a0a0a"/><path d="M29.38,84a6.09,6.09,0,1,0,6.08,6.09A6.1,6.1,0,0,0,29.38,84Z" transform="translate(-0.38 -0.06)" fill="#0a0a0a"/><path d="M244.09,98.79c-8.79,0-11.28,4.27-11.28,4.27v9.46h22.57v-9.46S252.89,98.8,244.09,98.79Z" transform="translate(-0.38 -0.06)" fill="#0a0a0a"/><path d="M244.09,84a6.09,6.09,0,1,0,6.09,6.09A6.1,6.1,0,0,0,244.09,84Z" transform="translate(-0.38 -0.06)" fill="#0a0a0a"/><polygon points="282.6 86.95 268.83 101.4 263.22 95.52 259.11 99.84 268.83 110.03 286.72 91.27 282.6 86.95" fill="#0a0a0a"/><rect x="122.49" y="211.47" width="53.45" height="15.68" fill="#fff"/><path d="M65.81,223V110.42A8.21,8.21,0,0,1,74,102.23H227.11a8.21,8.21,0,0,1,8.19,8.19V223" transform="translate(-0.38 -0.06)" fill="#1e1e1e"/><path d="M235.54,223h-.48V110.42a8,8,0,0,0-7.95-8H74a8,8,0,0,0-8,8V223h-.48V110.42A8.45,8.45,0,0,1,74,102H227.11a8.44,8.44,0,0,1,8.43,8.43Z" transform="translate(-0.38 -0.06)" fill="#ededed"/><rect x="77.95" y="114.69" width="144.45" height="91.25" fill="#2b8cc4"/><path d="M223,206.24H78.09V114.51H223Zm-144.45-.48h144V115h-144Z" transform="translate(-0.38 -0.06)" fill="#0a0a0a"/><rect x="131.32" y="218.25" width="37.84" height="6.57" fill="#878787"/><path d="M166,222.37H135.12c-1.83,0-3.38-2-3.5-3.85H40.77v10.11l25,2.89H235.3l25-2.89V218.52H169.49C169.38,220.48,167.88,222.37,166,222.37Z" transform="translate(-0.38 -0.06)" fill="#b2b2b2"/><polygon points="40.39 228.56 65.43 231.45 234.93 231.45 259.96 228.56 40.39 228.56" fill="#878787"/><path d="M166,222.61H135.12c-2,0-3.5-2-3.72-3.85H40.77v-.48h91.08v.22c.11,1.71,1.52,3.63,3.26,3.63H166c1.83,0,3.16-1.88,3.26-3.63v-.22h91.08v.48H169.71C169.5,220.66,168,222.61,166,222.61Z" transform="translate(-0.38 -0.06)" fill="#ededed"/><rect x="40.39" y="231.45" width="219.57" height="1.44" fill="#1a345c"/><path d="M251.17,199.84a1.65,1.65,0,0,1-1.13-.44l-10-9.15a1.67,1.67,0,0,1-.55-1.24,1.7,1.7,0,0,1,.55-1.25l10-9.14a1.68,1.68,0,0,1,2.27,2.49l-8.66,7.9,8.66,7.9a1.68,1.68,0,0,1,.11,2.38A1.66,1.66,0,0,1,251.17,199.84Z" transform="translate(-0.38 -0.06)" fill="#009fe3"/><path d="M251.17,190.69a1.62,1.62,0,0,1-1.18-.49,1.38,1.38,0,0,1-.22-.26,1.32,1.32,0,0,1-.15-.29,1.6,1.6,0,0,1-.1-.31,1.83,1.83,0,0,1,0-.66,1.7,1.7,0,0,1,.1-.32,2,2,0,0,1,.15-.29,2.52,2.52,0,0,1,.21-.25,1.71,1.71,0,0,1,1.52-.46,1.68,1.68,0,0,1,.32.09,2.69,2.69,0,0,1,.29.16,1.27,1.27,0,0,1,.25.21,1.67,1.67,0,0,1,.5,1.19,1.84,1.84,0,0,1,0,.33,2.81,2.81,0,0,1-.1.31,1.32,1.32,0,0,1-.15.29,1.38,1.38,0,0,1-.22.26,1.27,1.27,0,0,1-.25.21,1.14,1.14,0,0,1-.29.15,1.19,1.19,0,0,1-.32.1A1.69,1.69,0,0,1,251.17,190.69Z" transform="translate(-0.38 -0.06)" fill="#009fe3"/><path d="M270.76,189a1.69,1.69,0,0,1,1.69-1.69h0a1.69,1.69,0,0,1,1.68,1.69h0a1.68,1.68,0,0,1-1.68,1.68h0A1.69,1.69,0,0,1,270.76,189Zm-7.09,0a1.69,1.69,0,0,1,1.69-1.69h0A1.69,1.69,0,0,1,267,189h0a1.68,1.68,0,0,1-1.68,1.68h0A1.69,1.69,0,0,1,263.67,189Zm-7.09,0a1.69,1.69,0,0,1,1.68-1.69h0A1.69,1.69,0,0,1,260,189h0a1.68,1.68,0,0,1-1.69,1.68h0A1.68,1.68,0,0,1,256.58,189Z" transform="translate(-0.38 -0.06)" fill="#009fe3"/><path d="M279.54,190.69a1.69,1.69,0,0,1-.33,0,1.19,1.19,0,0,1-.32-.1,1.14,1.14,0,0,1-.29-.15,1.27,1.27,0,0,1-.25-.21,1.38,1.38,0,0,1-.22-.26,1.32,1.32,0,0,1-.15-.29,1.6,1.6,0,0,1-.1-.31,1.83,1.83,0,0,1,0-.66,1.7,1.7,0,0,1,.1-.32,2,2,0,0,1,.15-.29,2.52,2.52,0,0,1,.21-.25,1.71,1.71,0,0,1,.26-.21,2.69,2.69,0,0,1,.29-.16,1.68,1.68,0,0,1,.32-.09,1.43,1.43,0,0,1,.65,0,1.68,1.68,0,0,1,.32.09,2.69,2.69,0,0,1,.29.16,1.71,1.71,0,0,1,.26.21,2.52,2.52,0,0,1,.21.25,2,2,0,0,1,.15.29,1.7,1.7,0,0,1,.1.32,1.83,1.83,0,0,1,0,.66,1.6,1.6,0,0,1-.1.31,1.32,1.32,0,0,1-.15.29,1.38,1.38,0,0,1-.22.26A1.64,1.64,0,0,1,279.54,190.69Z" transform="translate(-0.38 -0.06)" fill="#009fe3"/><path d="M277.85,182.05a1.69,1.69,0,0,1,1.69-1.68h0a1.68,1.68,0,0,1,1.68,1.68h0a1.69,1.69,0,0,1-1.68,1.69h0A1.69,1.69,0,0,1,277.85,182.05Zm0-7a1.69,1.69,0,0,1,1.69-1.69h0a1.69,1.69,0,0,1,1.68,1.69h0a1.68,1.68,0,0,1-1.68,1.68h0A1.69,1.69,0,0,1,277.85,175.1Zm0-7a1.69,1.69,0,0,1,1.69-1.69h0a1.69,1.69,0,0,1,1.68,1.69h0a1.69,1.69,0,0,1-1.68,1.69h0A1.69,1.69,0,0,1,277.85,168.14Zm0-7a1.69,1.69,0,0,1,1.69-1.68h0a1.68,1.68,0,0,1,1.68,1.68h0a1.69,1.69,0,0,1-1.68,1.69h0A1.69,1.69,0,0,1,277.85,161.18Zm0-7a1.69,1.69,0,0,1,1.69-1.69h0a1.69,1.69,0,0,1,1.68,1.69h0a1.68,1.68,0,0,1-1.68,1.68h0A1.69,1.69,0,0,1,277.85,154.23Zm0-7a1.69,1.69,0,0,1,1.69-1.68h0a1.68,1.68,0,0,1,1.68,1.68h0a1.69,1.69,0,0,1-1.68,1.69h0A1.69,1.69,0,0,1,277.85,147.27Z" transform="translate(-0.38 -0.06)" fill="#009fe3"/><path d="M279.54,142a1.15,1.15,0,0,1-.33,0,1.45,1.45,0,0,1-.61-.25,1.22,1.22,0,0,1-.25-.2,1.78,1.78,0,0,1-.22-.26A1.59,1.59,0,0,1,278,141a1.86,1.86,0,0,1-.1-.31,2,2,0,0,1,0-.34,1.82,1.82,0,0,1,0-.32,1.7,1.7,0,0,1,.1-.32,1.59,1.59,0,0,1,.15-.29,1.58,1.58,0,0,1,.47-.47,1.59,1.59,0,0,1,.29-.15,1.7,1.7,0,0,1,.32-.1,1.78,1.78,0,0,1,.65,0,1.7,1.7,0,0,1,.32.1,1.59,1.59,0,0,1,.29.15,1.58,1.58,0,0,1,.47.47,1.59,1.59,0,0,1,.15.29,1.7,1.7,0,0,1,.1.32,1.82,1.82,0,0,1,0,.32,2,2,0,0,1,0,.34,1.86,1.86,0,0,1-.1.31,1.59,1.59,0,0,1-.15.29,1.78,1.78,0,0,1-.22.26,1.22,1.22,0,0,1-.25.2,1.45,1.45,0,0,1-.61.25A1.12,1.12,0,0,1,279.54,142Z" transform="translate(-0.38 -0.06)" fill="#009fe3"/><path d="M125,187.91A26.84,26.84,0,1,0,98.2,161.07,26.84,26.84,0,0,0,125,187.91" transform="translate(-0.38 -0.06)" fill="#0a0a0a"/><path d="M114.76,155.78a1.76,1.76,0,1,0-1-2.28,1.76,1.76,0,0,0,1,2.28" transform="translate(-0.38 -0.06)" fill="#fff"/><path d="M110.78,158.12a1.76,1.76,0,1,0-1-2.29,1.77,1.77,0,0,0,1,2.29" transform="translate(-0.38 -0.06)" fill="#fff"/><path d="M109.61,162.54a1.75,1.75,0,1,0-1-2.28,1.75,1.75,0,0,0,1,2.28" transform="translate(-0.38 -0.06)" fill="#fff"/><path d="M119.2,157.18a1.75,1.75,0,0,0,2.3-.94,1.75,1.75,0,1,0-3.24-1.34,1.75,1.75,0,0,0,.94,2.28" transform="translate(-0.38 -0.06)" fill="#fff"/><path d="M135.31,155.78a1.76,1.76,0,1,1,.95-2.28,1.76,1.76,0,0,1-.95,2.28" transform="translate(-0.38 -0.06)" fill="#fff"/><path d="M139.29,158.12a1.76,1.76,0,1,1,1-2.29,1.77,1.77,0,0,1-1,2.29" transform="translate(-0.38 -0.06)" fill="#fff"/><path d="M140.46,162.54a1.75,1.75,0,1,1,.95-2.28,1.75,1.75,0,0,1-.95,2.28" transform="translate(-0.38 -0.06)" fill="#fff"/><path d="M130.87,157.18a1.76,1.76,0,1,1,.94-2.28,1.76,1.76,0,0,1-.94,2.28" transform="translate(-0.38 -0.06)" fill="#fff"/><path d="M126,152.64h0l2.22,1.17v-3.28l-2.22.7h0a1,1,0,0,0-.21-.21h0l.9-2.81h-3.21l.89,2.81h0a1,1,0,0,0-.21.21h0l-2.22-.7v3.28l2.22-1.17h0a1,1,0,0,0,.23.23l-1.28,3.85v0h0a2.1,2.1,0,0,0-.09.61,2.07,2.07,0,0,0,1.77,2.05h0l.26,0,.26,0h0a2.08,2.08,0,0,0,1.77-2.05,2.5,2.5,0,0,0-.09-.61h0v0l-1.28-3.85a.84.84,0,0,0,.23-.23" transform="translate(-0.38 -0.06)" fill="#fff"/><path d="M125,171.5a84,84,0,0,1,11.78.79,22.34,22.34,0,0,1,3.51-8.41l-2.39-.86a4.32,4.32,0,0,1,0,2.56,4.81,4.81,0,0,1-1.06-2.17l-1.16,3.85a3.51,3.51,0,0,1,1.87-.81c-1.1,2.38-2.48,3-3.37,2.82a1.71,1.71,0,0,1-1.43-2c.26-1.17,1.46-1.48,2-.12,1.08-2.18-.74-2.86-1.91-2.22,1.79-1.79,2-3.38.55-5.31-2,1.55-2,3.08-1.13,5.23-1.18-1.35-3-.63-2.36,1.55.85-1.31,2-.48,1.81.77-.15,1.09-1.59,2-3.39,1.81-2.57-.23-2.72-2-2.78-3.47.63-.12,1.77.47,2.74,1.83l.35-4.1a4,4,0,0,1-3.07,1.35,11.82,11.82,0,0,1,2-2.92h-5.11a11.82,11.82,0,0,1,2,2.92,4,4,0,0,1-3.07-1.35l.35,4.1c1-1.36,2.11-1.95,2.74-1.83-.06,1.46-.22,3.24-2.79,3.47-1.79.16-3.23-.72-3.38-1.81-.17-1.25,1-2.08,1.8-.77.67-2.18-1.17-2.9-2.35-1.55.91-2.15.89-3.68-1.13-5.23-1.45,1.93-1.25,3.52.55,5.31-1.17-.64-3,0-1.92,2.22.56-1.36,1.76-1,2,.12a1.69,1.69,0,0,1-1.42,2c-.89.17-2.27-.44-3.37-2.82a3.54,3.54,0,0,1,1.87.81l-1.16-3.85a4.81,4.81,0,0,1-1.06,2.17,4.32,4.32,0,0,1,0-2.56l-2.39.86a22.34,22.34,0,0,1,3.51,8.41A83.84,83.84,0,0,1,125,171.5" transform="translate(-0.38 -0.06)" fill="#fff"/><path d="M179.59,134.23a76.27,76.27,0,0,0-21.4,2.81v33.29c0,3.88,3.18,7.48,10.63,12a101.45,101.45,0,0,0,9,4.85l1.74.81,1.74-.81a97.82,97.82,0,0,0,9-4.85c7.45-4.54,10.62-8.14,10.62-12V137a76.14,76.14,0,0,0-21.39-2.81" transform="translate(-0.38 -0.06)" fill="#0a0a0a"/><polygon points="188.99 148.65 175.22 163.09 169.61 157.21 165.49 161.53 175.22 171.72 193.11 152.96 188.99 148.65" fill="#fff"/><path d="M58.94,190.69a1.84,1.84,0,0,1-.33,0,1.31,1.31,0,0,1-.32-.1,1.14,1.14,0,0,1-.29-.15,1.27,1.27,0,0,1-.25-.21,1.09,1.09,0,0,1-.21-.26,1.35,1.35,0,0,1-.16-.29,2.81,2.81,0,0,1-.1-.31,1.83,1.83,0,0,1,0-.66,3,3,0,0,1,.1-.32,2.09,2.09,0,0,1,.16-.29,1.64,1.64,0,0,1,.21-.25,1.27,1.27,0,0,1,.25-.21,2.69,2.69,0,0,1,.29-.16,1.92,1.92,0,0,1,.32-.09,1.47,1.47,0,0,1,.66,0l.32.09.28.16a1.33,1.33,0,0,1,.26.21,1.64,1.64,0,0,1,.21.25,2,2,0,0,1,.15.29,1.19,1.19,0,0,1,.1.32,1.38,1.38,0,0,1,0,.66,1.12,1.12,0,0,1-.1.31,1.32,1.32,0,0,1-.15.29,1.09,1.09,0,0,1-.21.26A1.66,1.66,0,0,1,58.94,190.69Z" transform="translate(-0.38 -0.06)" fill="#009fe3"/><path d="M51,189a1.69,1.69,0,0,1,1.69-1.69h0A1.69,1.69,0,0,1,54.37,189h0a1.68,1.68,0,0,1-1.68,1.68h0A1.69,1.69,0,0,1,51,189Zm-6.25,0a1.69,1.69,0,0,1,1.68-1.69h0A1.69,1.69,0,0,1,48.12,189h0a1.69,1.69,0,0,1-1.69,1.68h0A1.68,1.68,0,0,1,44.75,189Zm-6.26,0a1.69,1.69,0,0,1,1.69-1.69h0A1.69,1.69,0,0,1,41.87,189h0a1.69,1.69,0,0,1-1.69,1.68h0A1.69,1.69,0,0,1,38.49,189Zm-6.25,0a1.69,1.69,0,0,1,1.69-1.69h0A1.69,1.69,0,0,1,35.61,189h0a1.68,1.68,0,0,1-1.68,1.68h0A1.69,1.69,0,0,1,32.24,189ZM26,189a1.69,1.69,0,0,1,1.69-1.69h0A1.69,1.69,0,0,1,29.36,189h0a1.69,1.69,0,0,1-1.69,1.68h0A1.69,1.69,0,0,1,26,189Z" transform="translate(-0.38 -0.06)" fill="#009fe3"/><path d="M21.43,190.69a1.84,1.84,0,0,1-.33,0,1.24,1.24,0,0,1-.31-.1,1.14,1.14,0,0,1-.29-.15,1.33,1.33,0,0,1-.26-.21,1.71,1.71,0,0,1-.49-1.19,1.84,1.84,0,0,1,0-.33,1.7,1.7,0,0,1,.1-.32,2,2,0,0,1,.15-.29,1.64,1.64,0,0,1,.21-.25,1.33,1.33,0,0,1,.26-.21,2.69,2.69,0,0,1,.29-.16,1.81,1.81,0,0,1,.31-.09,1.67,1.67,0,0,1,1.52.46,2.62,2.62,0,0,1,.22.25c.05.1.11.19.15.29a3,3,0,0,1,.1.32,1.83,1.83,0,0,1,0,.66,2.81,2.81,0,0,1-.1.31,2,2,0,0,1-.15.29,1.88,1.88,0,0,1-.22.26A1.65,1.65,0,0,1,21.43,190.69Z" transform="translate(-0.38 -0.06)" fill="#009fe3"/><path d="M19.75,182.26a1.69,1.69,0,0,1,1.68-1.69h0a1.69,1.69,0,0,1,1.69,1.69h0a1.69,1.69,0,0,1-1.69,1.68h0A1.68,1.68,0,0,1,19.75,182.26Zm0-6.75a1.68,1.68,0,0,1,1.68-1.69h0a1.69,1.69,0,0,1,1.69,1.69h0a1.69,1.69,0,0,1-1.69,1.68h0A1.68,1.68,0,0,1,19.75,175.51Zm0-6.76a1.68,1.68,0,0,1,1.68-1.68h0a1.69,1.69,0,0,1,1.69,1.68h0a1.69,1.69,0,0,1-1.69,1.69h0A1.68,1.68,0,0,1,19.75,168.75Zm0-6.75a1.68,1.68,0,0,1,1.68-1.68h0A1.69,1.69,0,0,1,23.12,162h0a1.69,1.69,0,0,1-1.69,1.69h0A1.68,1.68,0,0,1,19.75,162Zm0-6.75a1.69,1.69,0,0,1,1.68-1.69h0a1.69,1.69,0,0,1,1.69,1.69h0a1.69,1.69,0,0,1-1.69,1.68h0A1.68,1.68,0,0,1,19.75,155.25Z" transform="translate(-0.38 -0.06)" fill="#009fe3"/><path d="M21.43,150.18l-.33,0a1.24,1.24,0,0,1-.31-.1,1.14,1.14,0,0,1-.29-.15,1.33,1.33,0,0,1-.26-.21,1.27,1.27,0,0,1-.21-.25,1.4,1.4,0,0,1-.15-.3,1.6,1.6,0,0,1-.1-.31,1.83,1.83,0,0,1,0-.66,2.33,2.33,0,0,1,.1-.32,2,2,0,0,1,.15-.29,1.64,1.64,0,0,1,.21-.25,1.33,1.33,0,0,1,.26-.21,2.69,2.69,0,0,1,.29-.16,1.81,1.81,0,0,1,.31-.09,1.67,1.67,0,0,1,1.52.46,2.62,2.62,0,0,1,.22.25c.05.1.11.19.15.29s.07.22.1.32a1.83,1.83,0,0,1,0,.66,2.81,2.81,0,0,1-.1.31,2.1,2.1,0,0,1-.15.3,1.79,1.79,0,0,1-.22.25A1.65,1.65,0,0,1,21.43,150.18Z" transform="translate(-0.38 -0.06)" fill="#009fe3"/><path d="M30.58,150.88a1.69,1.69,0,0,1-1.24-.55l-7.91-8.67-7.9,8.67a1.7,1.7,0,0,1-2.38.11,1.68,1.68,0,0,1-.11-2.38l9.15-10a1.68,1.68,0,0,1,2.49,0l9.15,10a1.69,1.69,0,0,1-.11,2.38A1.72,1.72,0,0,1,30.58,150.88Z" transform="translate(-0.38 -0.06)" fill="#009fe3"/><path d="M93.18,37a1.66,1.66,0,0,1-1.24-.55A1.68,1.68,0,0,1,92.05,34l8.66-7.9-8.66-7.9a1.68,1.68,0,0,1,2.27-2.49l10,9.14a1.7,1.7,0,0,1,.55,1.25,1.67,1.67,0,0,1-.55,1.24l-10,9.15A1.65,1.65,0,0,1,93.18,37Z" transform="translate(-0.38 -0.06)" fill="#009fe3"/><path d="M108.81,47.93A41.88,41.88,0,0,0,141.6,88.75v7l18-10.35-18-10.36v7.35a35.65,35.65,0,0,1-5.89-66.88l-6.31-3.62a41.82,41.82,0,0,0-20.59,36" transform="translate(-0.38 -0.06)" fill="#1a345c"/><path d="M159.64.06l-18,10.36,18,10.36V13.44a35.64,35.64,0,0,1,5.89,66.87l6.31,3.62a41.81,41.81,0,0,0,20.59-35.86v-.28A41.87,41.87,0,0,0,159.64,7.11v-7Z" transform="translate(-0.38 -0.06)" fill="#1a345c"/><path d="M158.74,44a2.16,2.16,0,0,1-2.16-2.16V36.56c0-2.76-2.67-5-6-5s-6,2.25-6,5v5.25a2.17,2.17,0,0,1-4.33,0V36.56c0-5.15,4.62-9.34,10.29-9.34s10.29,4.19,10.29,9.34v5.25A2.17,2.17,0,0,1,158.74,44Z" transform="translate(-0.38 -0.06)" fill="#1d9cd8"/><rect x="135.91" y="42.46" width="28.67" height="20.66" fill="#66b2e3"/><path d="M165,64.39H136.29a1.21,1.21,0,0,1-1.21-1.21V42.52a1.21,1.21,0,0,1,1.21-1.2H165a1.21,1.21,0,0,1,1.21,1.2V63.18A1.21,1.21,0,0,1,165,64.39ZM137.49,62h26.26V43.72H137.49Z" transform="translate(-0.38 -0.06)" fill="#66b2e3"/><path d="M153.86,51.39a3.24,3.24,0,1,1-3.24-3.24A3.24,3.24,0,0,1,153.86,51.39Z" transform="translate(-0.38 -0.06)" fill="#002f63"/><rect x="148.08" y="51.85" width="4.33" height="6.16" fill="#002f63"/></svg>