<?xml version="1.0" encoding="utf-8"?>
<!-- Generator: Adobe Illustrator 22.1.0, SVG Export Plug-In . SVG Version: 6.00 Build 0)  -->
<svg version="1.1" id="Layer_1" xmlns="http://www.w3.org/2000/svg" xmlns:xlink="http://www.w3.org/1999/xlink" x="0px" y="0px"
	 viewBox="0 0 630 120" style="enable-background:new 0 0 630 120;" xml:space="preserve">
<style type="text/css">
	.st0{fill:#FFFFFF;}
	.st1{fill:#0B0C0C;}
	.st2{fill:#005EA5;}
	.st3{fill:#DEE0E2;}
	.st4{fill:#00823B;}
	.st5{fill:#28A197;}
</style>
<g>
	<g>
		<rect x="93.5" y="13.5" class="st3" width="74" height="92"/>
		<path class="st1" d="M166,15v89H95V15H166 M169,12H92v95h77V12L169,12z"/>
	</g>
	<g>
		<rect x="92" y="12" class="st1" width="77" height="15"/>
	</g>
</g>
<g>
	<g>
		<rect x="185.5" y="13.5" class="st3" width="74" height="92"/>
		<path class="st1" d="M258,15v89h-71V15H258 M261,12h-77v95h77V12L261,12z"/>
	</g>
	<g>
		<rect x="184" y="12" class="st1" width="77" height="15"/>
	</g>
</g>
<g>
	<g>
		<rect x="370.5" y="13.5" class="st3" width="74" height="92"/>
		<path class="st1" d="M443,15v89h-71V15H443 M446,12h-77v95h77V12L446,12z"/>
	</g>
	<g>
		<rect x="369" y="12" class="st1" width="77" height="15"/>
	</g>
</g>
<g>
	<g>
		<rect x="462.5" y="13.5" class="st3" width="74" height="92"/>
		<path class="st1" d="M535,15v89h-71V15H535 M538,12h-77v95h77V12L538,12z"/>
	</g>
	<g>
		<rect x="461" y="12" class="st1" width="77" height="15"/>
	</g>
</g>
<g>
	<g>
		<rect x="278.5" y="13.5" class="st0" width="74" height="92"/>
		<path class="st1" d="M351,15v89h-71V15H351 M354,12h-77v95h77V12L354,12z"/>
	</g>
	<g>
		<rect x="277" y="12" class="st1" width="77" height="15"/>
	</g>
	<rect x="287" y="35" class="st2" width="56" height="32"/>
</g>
<g>
	<g>
		<rect x="1.5" y="13.5" class="st3" width="74" height="92"/>
		<path class="st1" d="M74,15v89H3V15H74 M77,12H0v95h77V12L77,12z"/>
	</g>
	<g>
		<rect y="12" class="st1" width="77" height="15"/>
	</g>
	<rect x="10" y="84" class="st4" width="28" height="12"/>
</g>
<g>
	<g>
		<g>
			<rect x="554.5" y="13.5" class="st3" width="74" height="92"/>
			<path class="st1" d="M627,15v89h-71V15H627 M630,12h-77v95h77V12L630,12z"/>
		</g>
		<g>
			<rect x="553" y="12" class="st1" width="77" height="15"/>
		</g>
	</g>
	<rect x="564" y="35" class="st5" width="56" height="32"/>
	<g>
		<polygon class="st3" points="589.4,58.1 581.5,51.2 583.8,48.5 589.2,53.2 600.5,41 603.1,43.4 		"/>
	</g>
</g>
</svg>
